<?xml version="1.0" encoding="UTF-8"?>
<svg width="140px" height="51px" viewBox="0 0 140 51" version="1.1" xmlns="http://www.w3.org/2000/svg" xmlns:xlink="http://www.w3.org/1999/xlink">
    <!-- Generator: Sketch 43.2 (39069) - http://www.bohemiancoding.com/sketch -->
    <title>Logo</title>
    <desc>Created with Sketch.</desc>
    <defs></defs>
    <g id="Header" stroke="none" stroke-width="1" fill="none" fill-rule="evenodd">
        <g id="Artboard" transform="translate(-424.000000, -228.000000)">
            <g id="Positive-Header" transform="translate(260.000000, 190.000000)">
                <g id="Logo" transform="translate(162.000000, 36.000000)">
                    <rect id="Security-Area" x="0" y="0" width="144" height="55"></rect>
                    <g id="Logotype" transform="translate(2.000000, 2.000000)">
                        <path d="M126.603661,0.00805197761 C126.469831,0.00805197761 126.336949,0.00947570643 126.202169,0.0118485878 C117.416814,0.183170622 110.372678,6.20411977 109.817424,14.0180181 C109.54122,17.9057469 110.884746,21.6530011 113.602169,24.5697469 C116.762373,27.9624927 121.501492,29.9087299 126.605085,29.9087299 C130.729627,29.9087299 134.645356,28.6767299 137.767593,26.4177469 C137.894305,26.3261537 138.019119,26.2331367 138.142983,26.1382215 C138.301492,26.0167299 138.273017,25.7671028 138.092678,25.6802554 L137.701153,25.4918486 L134.898305,24.1435774 L134.659593,24.0287299 C134.572271,23.9869672 134.468814,23.9974079 134.390034,24.0529333 C134.179322,24.2005266 133.970034,24.3376791 133.761695,24.464391 C131.697288,25.7210689 129.700746,25.998696 127.408068,25.998696 C126.858508,25.998696 126.300407,25.9668994 125.749424,25.9047299 C120.035051,25.2593062 115.91478,21.4850011 115.251797,16.2893401 C114.844136,13.0921198 115.783322,10.0092723 117.897559,7.60886554 C119.522034,5.76418757 122.934237,4.30391638 126.897424,4.30391638 C129.756271,4.30391638 132.554373,4.89334011 135.228136,6.66778079 C135.462576,6.82344181 135.696068,6.9876452 135.928136,7.16181469 C136.013559,7.22588249 136.128881,7.23442486 136.220949,7.18174689 L136.521356,7.00900113 L139.19939,5.46995028 L139.421017,5.34228927 C139.576678,5.25259435 139.605153,5.03523842 139.474644,4.91137401 C139.284339,4.7315096 139.089763,4.55591638 138.890915,4.38459435 C135.638644,1.58886554 131.24122,0.00852655389 126.605085,0.00805197761 L126.603661,0.00805197761 Z" id="Fill-1" fill="#61788E"></path>
                        <path d="M16.7125831,6.80574011 C16.9294644,6.42845198 17.4723797,6.42512994 17.6944814,6.79862147 L27.8523119,26.2614689 L27.8674983,26.2904181 L27.8798373,26.3198418 C27.937261,26.4565198 28.0060746,26.5860791 28.0801085,26.7108927 L28.0990915,26.7479096 C28.6766508,27.6918418 29.7060068,28.2803164 30.836922,28.2803164 L34.1712949,28.2803164 C34.3416678,28.2803164 34.4517695,28.0995028 34.3729898,27.9476384 L20.6857356,1.58492655 C20.6468203,1.50946893 20.5689898,1.4620113 20.4835661,1.4620113 L13.9149559,1.4620113 C13.8304814,1.4620113 13.7526508,1.50946893 13.713261,1.58492655 L0.0260067797,27.9476384 C-0.0527728814,28.0995028 0.0573288136,28.2803164 0.228176271,28.2803164 L5.29285424,28.2803164 C5.39251525,28.2803164 5.48458305,28.224791 5.53109153,28.1360452 L16.7125831,6.80574011 Z" id="Fill-4" fill="#61788E"></path>
                        <path d="M51.2078712,22.9362554 C50.9909898,23.3135435 50.4476,23.3178147 50.2254983,22.943374 L40.0676678,3.48100113 L40.0529559,3.45252655 L40.0406169,3.42262825 C39.9827186,3.28595028 39.9143797,3.15591638 39.8398712,3.0315774 L39.8208881,2.99456045 C39.2433288,2.05062825 38.2144475,1.46215367 37.0830576,1.46215367 L33.7486847,1.46215367 C33.5783119,1.46215367 33.4682102,1.64296723 33.5465153,1.79435706 L47.2337695,28.1575435 C47.2731593,28.2325266 47.3509898,28.2804588 47.435939,28.2804588 L54.0050237,28.2804588 C54.0899729,28.2804588 54.1673288,28.2325266 54.2067186,28.1575435 L67.8939729,1.79435706 C67.972278,1.64296723 67.8626508,1.46215367 67.6918034,1.46215367 L62.6271254,1.46215367 C62.5274644,1.46215367 62.4353966,1.51720452 62.3888881,1.60642486 L51.2078712,22.9362554 Z" id="Fill-6" fill="#61788E"></path>
                        <path d="M103.590888,1.46186893 L76.1746169,1.46186893 C76.0336678,1.46186893 75.9183458,1.56390282 75.9183458,1.68919096 L75.9183458,5.71739435 C75.9183458,5.84363164 76.0336678,5.94519096 76.1746169,5.94519096 L103.590888,5.94519096 C103.731837,5.94519096 103.847159,5.84315706 103.847159,5.71786893 L103.847159,1.68966554 C103.847159,1.56342825 103.731837,1.46186893 103.590888,1.46186893" id="Fill-8" fill="#3DC1D0"></path>
                        <path d="M91.7264814,12.1549266 L76.1746169,12.1549266 C76.0336678,12.1549266 75.9183458,12.2569605 75.9183458,12.3822486 L75.9183458,16.410452 C75.9183458,16.5362147 76.0336678,16.6382486 76.1746169,16.6382486 L91.7264814,16.6382486 C91.8674305,16.6382486 91.9827525,16.5362147 91.9827525,16.410452 L91.9827525,12.3822486 C91.9827525,12.2564859 91.8674305,12.1549266 91.7264814,12.1549266" id="Fill-10" fill="#3DC1D0"></path>
                        <path d="M98.8451254,23.4469469 L76.1746169,23.4469469 C76.0336678,23.4469469 75.9183458,23.5489808 75.9183458,23.6742689 L75.9183458,27.7024723 C75.9183458,27.828235 76.0336678,27.9302689 76.1746169,27.9302689 L98.8451254,27.9302689 C98.9860746,27.9302689 99.1013966,27.828235 99.1013966,27.7024723 L99.1013966,23.6742689 C99.1013966,23.5485062 98.9860746,23.4469469 98.8451254,23.4469469" id="Fill-12" fill="#3DC1D0"></path>
                    </g>
                    <g id="Tagline" transform="translate(2.466667, 44.466667)" fill="#61788E">
                        <path d="M3.8840113,6.86841582 C4.30211299,6.86841582 4.64143503,6.52956836 4.64143503,6.11099209 L4.64143503,1.85594124 C4.64143503,1.43831412 4.30211299,1.09899209 3.8840113,1.09899209 L1.23302825,1.09899209 C1.12387571,1.09899209 1.04414689,1.1787209 1.04414689,1.28834802 L1.04414689,6.67905989 C1.04414689,6.77919548 1.12387571,6.86841582 1.23302825,6.86841582 L3.8840113,6.86841582 Z M0.107333333,7.14746667 L0.107333333,0.819941243 C0.107333333,0.501025989 0.366451977,0.242381921 0.685367232,0.242381921 L3.8840113,0.242381921 C4.82035028,0.242381921 5.57729944,0.99980565 5.57729944,1.93567006 L5.57729944,6.03126328 C5.57729944,6.95763616 4.82035028,7.72550056 3.8840113,7.72550056 L0.685367232,7.72550056 C0.366451977,7.72550056 0.107333333,7.46638192 0.107333333,7.14746667 L0.107333333,7.14746667 Z" id="Fill-14"></path>
                        <path d="M17.5669944,4.81577853 L16.2718757,1.09889718 L15.7835367,1.09889718 C15.7038079,1.09889718 15.6340452,1.14872768 15.6036723,1.2284565 L14.3583842,4.81577853 L17.5669944,4.81577853 Z M19.5303164,7.72540565 L18.7126215,7.72540565 C18.6234011,7.72540565 18.5531638,7.66560904 18.5337062,7.59537175 L17.8659774,5.67286328 L14.0594011,5.67286328 L13.3921469,7.59537175 C13.3717401,7.66560904 13.2920113,7.72540565 13.2122825,7.72540565 L12.3960113,7.72540565 L14.8272655,0.800388701 C14.9468588,0.471507345 15.2553333,0.242287006 15.614113,0.242287006 L16.7996045,0.242287006 C16.849435,0.242287006 16.8997401,0.272185311 16.9191977,0.312049718 L19.5303164,7.72540565 Z" id="Fill-17"></path>
                        <path d="M30.642852,0.242381921 L30.642852,0.969432768 C30.642852,1.03967006 30.5825808,1.09899209 30.5132927,1.09899209 L28.3805469,1.09899209 L28.3805469,7.59546667 C28.3805469,7.66570395 28.331191,7.72550056 28.2514621,7.72550056 L27.4442079,7.72550056 L27.4442079,1.09899209 L25.2122757,1.09899209 L25.2122757,0.371466667 C25.2122757,0.301703955 25.2720723,0.242381921 25.341835,0.242381921 L30.642852,0.242381921 Z" id="Fill-20"></path>
                        <path d="M41.5952181,4.81577853 L40.3000994,1.09889718 L39.8117605,1.09889718 C39.7320316,1.09889718 39.6622689,1.14872768 39.631896,1.2284565 L38.3866079,4.81577853 L41.5952181,4.81577853 Z M43.5585401,7.72540565 L42.7408452,7.72540565 C42.6516249,7.72540565 42.5813876,7.66560904 42.5619299,7.59537175 L41.8942011,5.67286328 L38.0876249,5.67286328 L37.4203706,7.59537175 C37.3999638,7.66560904 37.320235,7.72540565 37.2405062,7.72540565 L36.424235,7.72540565 L38.8554893,0.800388701 C38.9750825,0.471507345 39.2835571,0.242287006 39.6423367,0.242287006 L40.8278282,0.242287006 C40.8776588,0.242287006 40.9279638,0.272185311 40.9474215,0.312049718 L43.5585401,7.72540565 Z" id="Fill-23"></path>
                        <path d="M63.9494215,6.86841582 C64.3675232,6.86841582 64.6864384,6.52956836 64.6864384,6.11099209 L64.6864384,5.20407684 C64.6864384,5.1048904 64.6067096,4.99526328 64.5075232,4.9648904 L60.6810147,3.68970395 C60.3815571,3.59051751 60.1328791,3.25119548 60.1328791,2.93228023 L60.1328791,1.7467887 C60.1328791,0.809975141 60.8903028,0.242381921 61.8266418,0.242381921 L65.3740994,0.242381921 L65.3740994,0.969432768 C65.3740994,1.03967006 65.3237944,1.09899209 65.2445401,1.09899209 L61.8266418,1.09899209 C61.4085401,1.09899209 61.059252,1.36807684 61.059252,1.78665311 L61.059252,2.75336497 C61.059252,2.86299209 61.1389808,2.97214463 61.2391164,3.00251751 L65.0656249,4.26821243 C65.3636588,4.36692429 65.5833876,4.71621243 65.5833876,5.03512768 L65.5833876,6.10150056 C65.5833876,7.03736497 64.8757944,7.72550056 63.9494215,7.72550056 L60.1328791,7.72550056 L60.1328791,6.99750056 C60.1328791,6.91777175 60.1926757,6.86841582 60.2619638,6.86841582 L63.9494215,6.86841582 Z" id="Fill-26"></path>
                        <path d="M72.7499164,1.93585989 C72.7499164,0.999520904 73.5073401,0.242571751 74.4436791,0.242571751 L77.7320181,0.242571751 L77.7320181,0.969622599 C77.7320181,1.03938531 77.6722215,1.09870734 77.6029333,1.09870734 L74.4436791,1.09870734 C74.0255774,1.09870734 73.6867299,1.43802938 73.6867299,1.85613107 L73.6867299,6.11118192 C73.6867299,6.52975819 74.0255774,6.86860565 74.4436791,6.86860565 L77.6029333,6.86860565 C77.6722215,6.86860565 77.7320181,6.92840226 77.7320181,6.9976904 L77.7320181,7.72521582 L74.4436791,7.72521582 C73.5073401,7.72521582 72.7499164,6.95782599 72.7499164,6.03145311 L72.7499164,1.93585989 Z" id="Fill-29"></path>
                        <path d="M85.1273876,7.59556158 L85.1273876,0.242476836 L85.9346418,0.242476836 C86.0044045,0.242476836 86.0646757,0.30179887 86.0646757,0.371561582 L86.0646757,7.7251209 L85.2569469,7.7251209 C85.1876588,7.7251209 85.1273876,7.66532429 85.1273876,7.59556158" id="Fill-31"></path>
                        <path d="M94.4557537,1.85613107 L94.4557537,3.7496904 C94.5554147,3.63009718 94.7348045,3.55036836 94.9440927,3.55036836 L98.2224655,3.55036836 L98.2224655,4.27789379 C98.2224655,4.3476565 98.1626689,4.40697853 98.0929062,4.40697853 L94.4557537,4.40697853 L94.4557537,6.11118192 C94.4557537,6.52975819 94.7946011,6.86860565 95.2131774,6.86860565 L98.4412452,6.86860565 C98.5110079,6.86860565 98.5712791,6.92840226 98.5712791,6.9976904 L98.5712791,7.72521582 L95.2131774,7.72521582 C94.2763638,7.72521582 93.5189401,6.96779209 93.5189401,6.03145311 L93.5189401,1.93585989 C93.5189401,0.999520904 94.2763638,0.242571751 95.2131774,0.242571751 L98.5712791,0.242571751 L98.5712791,0.969622599 C98.5712791,1.03938531 98.5110079,1.09870734 98.4412452,1.09870734 L95.2131774,1.09870734 C94.7946011,1.09870734 94.4557537,1.43802938 94.4557537,1.85613107" id="Fill-33"></path>
                        <path d="M110.639564,6.37015819 C110.540377,5.59280226 110.540377,4.96493785 110.490547,4.25781921 L110.490547,0.371514124 C110.490547,0.301751412 110.550344,0.242429379 110.620106,0.242429379 L111.426886,0.242429379 L111.426886,7.72507345 L110.559835,7.72507345 C110.490547,7.72507345 110.400377,7.66527684 110.370954,7.6059548 L106.963021,1.25849718 C106.913191,1.16880226 106.793598,1.09903955 106.693937,1.09903955 L106.524513,1.09903955 L106.524513,7.59551412 C106.524513,7.66527684 106.464716,7.72507345 106.395428,7.72507345 L105.587699,7.72507345 L105.587699,0.371514124 C105.587699,0.301751412 105.647496,0.242429379 105.717733,0.242429379 L106.85292,0.242429379 C107.171835,0.242429379 107.551021,0.471175141 107.700513,0.750225989 L109.733123,4.58670056 L110.639564,6.37015819 Z" id="Fill-35"></path>
                        <path d="M118.73332,1.93585989 C118.73332,0.999520904 119.490744,0.242571751 120.427082,0.242571751 L123.715421,0.242571751 L123.715421,0.969622599 C123.715421,1.03938531 123.655625,1.09870734 123.585862,1.09870734 L120.427082,1.09870734 C120.008981,1.09870734 119.670133,1.43802938 119.670133,1.85613107 L119.670133,6.11118192 C119.670133,6.52975819 120.008981,6.86860565 120.427082,6.86860565 L123.585862,6.86860565 C123.655625,6.86860565 123.715421,6.92840226 123.715421,6.9976904 L123.715421,7.72521582 L120.427082,7.72521582 C119.490744,7.72521582 118.73332,6.95782599 118.73332,6.03145311 L118.73332,1.93585989 Z" id="Fill-37"></path>
                        <path d="M131.838364,1.85613107 L131.838364,3.7496904 C131.938025,3.63009718 132.117415,3.55036836 132.326228,3.55036836 L135.605076,3.55036836 L135.605076,4.27789379 C135.605076,4.3476565 135.545279,4.40697853 135.475042,4.40697853 L131.838364,4.40697853 L131.838364,6.11118192 C131.838364,6.52975819 132.177211,6.86860565 132.595788,6.86860565 L135.823855,6.86860565 C135.894093,6.86860565 135.953415,6.92840226 135.953415,6.9976904 L135.953415,7.72521582 L132.595788,7.72521582 C131.658974,7.72521582 130.90155,6.96779209 130.90155,6.03145311 L130.90155,1.93585989 C130.90155,0.999520904 131.658974,0.242571751 132.595788,0.242571751 L135.953415,0.242571751 L135.953415,0.969622599 C135.953415,1.03938531 135.894093,1.09870734 135.823855,1.09870734 L132.595788,1.09870734 C132.177211,1.09870734 131.838364,1.43802938 131.838364,1.85613107" id="Fill-39"></path>
                    </g>
                </g>
            </g>
        </g>
    </g>
</svg>