<?xml version="1.0" encoding="UTF-8"?>
<svg width="29px" height="27px" viewBox="0 0 29 27" version="1.1" xmlns="http://www.w3.org/2000/svg" xmlns:xlink="http://www.w3.org/1999/xlink">
    <!-- Generator: Sketch 43.2 (39069) - http://www.bohemiancoding.com/sketch -->
    <title>Symbol</title>
    <desc>Created with Sketch.</desc>
    <defs></defs>
    <g id="Header" stroke="none" stroke-width="1" fill="none" fill-rule="evenodd">
        <g transform="translate(-499.000000, -229.000000)" id="Positive-Header" fill="#3DC1D0">
            <g transform="translate(260.000000, 190.000000)">
                <g id="Logo" transform="translate(162.000000, 36.000000)">
                    <g id="Logotype" transform="translate(2.000000, 2.000000)">
                        <g id="Symbol" transform="translate(75.000000, 1.000000)">
                            <path d="M28.5908881,0.461868927 L1.17461695,0.461868927 C1.0336678,0.461868927 0.918345763,0.563902825 0.918345763,0.68919096 L0.918345763,4.71739435 C0.918345763,4.84363164 1.0336678,4.94519096 1.17461695,4.94519096 L28.5908881,4.94519096 C28.7318373,4.94519096 28.8471593,4.84315706 28.8471593,4.71786893 L28.8471593,0.689665537 C28.8471593,0.563428249 28.7318373,0.461868927 28.5908881,0.461868927" id="Fill-8"></path>
                            <path d="M16.7264814,11.1549266 L1.17461695,11.1549266 C1.0336678,11.1549266 0.918345763,11.2569605 0.918345763,11.3822486 L0.918345763,15.410452 C0.918345763,15.5362147 1.0336678,15.6382486 1.17461695,15.6382486 L16.7264814,15.6382486 C16.8674305,15.6382486 16.9827525,15.5362147 16.9827525,15.410452 L16.9827525,11.3822486 C16.9827525,11.2564859 16.8674305,11.1549266 16.7264814,11.1549266" id="Fill-10"></path>
                            <path d="M23.8451254,22.4469469 L1.17461695,22.4469469 C1.0336678,22.4469469 0.918345763,22.5489808 0.918345763,22.6742689 L0.918345763,26.7024723 C0.918345763,26.828235 1.0336678,26.9302689 1.17461695,26.9302689 L23.8451254,26.9302689 C23.9860746,26.9302689 24.1013966,26.828235 24.1013966,26.7024723 L24.1013966,22.6742689 C24.1013966,22.5485062 23.9860746,22.4469469 23.8451254,22.4469469" id="Fill-12"></path>
                        </g>
                    </g>
                </g>
            </g>
        </g>
    </g>
</svg>