<?xml version="1.0" encoding="UTF-8"?>
<svg width="100px" height="100px" viewBox="0 0 100 100" version="1.1" xmlns="http://www.w3.org/2000/svg" xmlns:xlink="http://www.w3.org/1999/xlink">
    <!-- Generator: Sketch 47.1 (45422) - http://www.bohemiancoding.com/sketch -->
    <title>blood_donate_icon</title>
    <desc>Created with Sketch.</desc>
    <defs></defs>
    <g id="Nescon-Page" stroke="none" stroke-width="1" fill="none" fill-rule="evenodd">
        <g id="Nescon-Page-Copy" transform="translate(-1165.000000, -556.000000)">
            <g id="noun_1203590_cc" transform="translate(1165.000000, 556.000000)">
                <g id="blood_donate_icon">
                    <rect id="Rectangle-4" fill="#3DC1D0" x="0" y="0" width="100" height="100"></rect>
                    <path d="M71.6,42 C69.2,42 67.2,43.5 66.5,45.7 C65.8,43.6 63.8,42 61.4,42 C58.4,42 56,44.4 56,47.4 C56,54.7 66.5,60.5 66.5,60.5 C66.5,60.5 77,54.7 77,47.4 C77,44.4 74.6,42 71.6,42 Z" id="Shape" fill="#FFFFFF" fill-rule="nonzero"></path>
                    <path d="M65.5,32.9 L65.5,41.2 C65.9,41.4 66.2,41.7 66.5,42 C66.8,41.7 67.1,41.4 67.5,41.2 L67.5,32.9 C67.5,28.1 63.6,24.2 58.8,24.2 C54,24.2 50.1,28.1 50.1,32.9 L50.1,70.6 C50.1,73.4 47.8,75.7 45,75.7 C42.2,75.7 39.9,73.4 39.9,70.6 L39.9,68 L37.9,68 L37.9,70.6 C37.9,74.5 41.1,77.7 45,77.7 C48.9,77.7 52.1,74.5 52.1,70.6 L52.1,32.9 C52.1,29.2 55.1,26.2 58.8,26.2 C62.5,26.2 65.5,29.2 65.5,32.9 Z" id="Shape" fill="#FFFFFF" fill-rule="nonzero"></path>
                    <rect id="Rectangle-path" fill="#FFFFFF" fill-rule="nonzero" x="36.1" y="63.2" width="5.6" height="2.9"></rect>
                    <path d="M37.5,30.1 C37.5,28.4 36.1,27 34.4,27 C32.8,27 31.4,28.4 31.4,30.1 L31.4,31.6 L37.5,31.6 L37.5,30.1 Z" id="Shape" fill="#FFFFFF" fill-rule="nonzero"></path>
                    <path d="M31.2,49.6 C31.2,51.4 32.6,52.8 34.4,52.8 C36.2,52.8 37.6,51.4 37.6,49.6 C37.6,48.4 35.9,45.2 34.4,42.8 C33,45.2 31.2,48.4 31.2,49.6 Z" id="Shape" fill="#FFFFFF" fill-rule="nonzero"></path>
                    <path d="M45.9,57.5 L45.9,37.3 C45.9,35.2 44.2,33.5 42.1,33.5 L26.8,33.5 C24.7,33.6 23,35.3 23,37.3 L23,57.4 C23,59.5 24.7,61.2 26.8,61.2 L42.2,61.2 C44.2,61.2 45.9,59.5 45.9,57.5 Z M34.5,54.8 C31.6,54.8 29.3,52.5 29.3,49.6 C29.3,47.1 32.9,41.6 33.7,40.5 C34.1,40 35,40 35.3,40.5 C36,41.6 39.7,47.1 39.7,49.6 C39.7,52.4 37.3,54.8 34.5,54.8 Z" id="Shape" fill="#FFFFFF" fill-rule="nonzero"></path>
                </g>
            </g>
        </g>
    </g>
</svg>
