<?xml version="1.0" encoding="UTF-8"?>
<svg width="559px" height="148px" viewBox="0 0 559 148" version="1.1" xmlns="http://www.w3.org/2000/svg" xmlns:xlink="http://www.w3.org/1999/xlink">
    <!-- Generator: Sketch 47.1 (45422) - http://www.bohemiancoding.com/sketch -->
    <title>BsB_Icons</title>
    <desc>Created with Sketch.</desc>
    <defs>
        <polygon id="path-1" points="0 147.974 558.667 147.974 558.667 0 0 0"></polygon>
    </defs>
    <g id="Nescon-Page" stroke="none" stroke-width="1" fill="none" fill-rule="evenodd">
        <g id="Nescon-Page-Copy" transform="translate(-353.000000, -768.000000)">
            <g id="BsB_Icons" transform="translate(353.000000, 768.000000)">
                <path d="M195.0342,119.4457 C185.7942,120.6647 181.2202,127.4067 179.9702,129.5847 L172.7302,129.5847 C178.5342,123.3857 186.5612,119.7387 195.0342,119.4457 Z" id="Fill-1" fill="#DCE4ED"></path>
                <path d="M148.667,72.0873 L143.677,72.0873 C143.124,72.0873 142.677,71.6393 142.677,71.0873 C142.677,70.5353 143.124,70.0873 143.677,70.0873 L148.667,70.0873 C149.22,70.0873 149.667,70.5353 149.667,71.0873 C149.667,71.6393 149.22,72.0873 148.667,72.0873" id="Fill-3" fill="#3E4C5B"></path>
                <path d="M77.6084,68.4442 L73.8164,68.4442 C73.2634,68.4442 72.8164,67.9962 72.8164,67.4442 C72.8164,66.8922 73.2634,66.4442 73.8164,66.4442 L77.6084,66.4442 C78.1614,66.4442 78.6084,66.8922 78.6084,67.4442 C78.6084,67.9962 78.1614,68.4442 77.6084,68.4442" id="Fill-5" fill="#3E4C5B"></path>
                <path d="M151.667,39.6674 L117.667,39.6674 C117.114,39.6674 116.667,39.2194 116.667,38.6674 C116.667,38.1154 117.114,37.6674 117.667,37.6674 L151.667,37.6674 C152.22,37.6674 152.667,38.1154 152.667,38.6674 C152.667,39.2194 152.22,39.6674 151.667,39.6674" id="Fill-7" fill="#3E4C5B"></path>
                <path d="M163.667,39.6674 L156,39.6674 C155.447,39.6674 155,39.2194 155,38.6674 C155,38.1154 155.447,37.6674 156,37.6674 L163.667,37.6674 C164.22,37.6674 164.667,38.1154 164.667,38.6674 C164.667,39.2194 164.22,39.6674 163.667,39.6674" id="Fill-9" fill="#3E4C5B"></path>
                <path d="M221,15.6674 L214.667,15.6674 C214.114,15.6674 213.667,15.2194 213.667,14.6674 C213.667,14.1154 214.114,13.6674 214.667,13.6674 L221,13.6674 C221.553,13.6674 222,14.1154 222,14.6674 C222,15.2194 221.553,15.6674 221,15.6674" id="Fill-11" fill="#3E4C5B"></path>
                <path d="M458.2441,54.3446 L450.7861,54.3446 C450.2331,54.3446 449.7861,53.8966 449.7861,53.3446 C449.7861,52.7926 450.2331,52.3446 450.7861,52.3446 L458.2441,52.3446 C458.7971,52.3446 459.2441,52.7926 459.2441,53.3446 C459.2441,53.8966 458.7971,54.3446 458.2441,54.3446" id="Fill-13" fill="#3E4C5B"></path>
                <path d="M394.583,63.6674 L388.457,63.6674 C387.904,63.6674 387.457,63.2194 387.457,62.6674 C387.457,62.1154 387.904,61.6674 388.457,61.6674 L394.583,61.6674 C395.136,61.6674 395.583,62.1154 395.583,62.6674 C395.583,63.2194 395.136,63.6674 394.583,63.6674" id="Fill-15" fill="#3E4C5B"></path>
                <path d="M382.8633,63.6674 L379.6673,63.6674 C379.1143,63.6674 378.6673,63.2194 378.6673,62.6674 C378.6673,62.1154 379.1143,61.6674 379.6673,61.6674 L382.8633,61.6674 C383.4163,61.6674 383.8633,62.1154 383.8633,62.6674 C383.8633,63.2194 383.4163,63.6674 382.8633,63.6674" id="Fill-17" fill="#3E4C5B"></path>
                <path d="M284.25,58.3402 L269.834,58.3402 C269.281,58.3402 268.834,57.8922 268.834,57.3402 C268.834,56.7882 269.281,56.3402 269.834,56.3402 L284.25,56.3402 C284.803,56.3402 285.25,56.7882 285.25,57.3402 C285.25,57.8922 284.803,58.3402 284.25,58.3402" id="Fill-19" fill="#3E4C5B"></path>
                <path d="M293.1729,58.3402 L288.8339,58.3402 C288.2809,58.3402 287.8339,57.8922 287.8339,57.3402 C287.8339,56.7882 288.2809,56.3402 288.8339,56.3402 L293.1729,56.3402 C293.7259,56.3402 294.1729,56.7882 294.1729,57.3402 C294.1729,57.8922 293.7259,58.3402 293.1729,58.3402" id="Fill-21" fill="#3E4C5B"></path>
                <path d="M536.834,80.1498 L525.377,80.1498 C524.824,80.1498 524.377,79.7018 524.377,79.1498 C524.377,78.5978 524.824,78.1498 525.377,78.1498 L536.834,78.1498 C537.387,78.1498 537.834,78.5978 537.834,79.1498 C537.834,79.7018 537.387,80.1498 536.834,80.1498" id="Fill-23" fill="#3E4C5B"></path>
                <path d="M520.2227,80.1498 L515.0867,80.1498 C514.5347,80.1498 514.0867,79.7018 514.0867,79.1498 C514.0867,78.5978 514.5347,78.1498 515.0867,78.1498 L520.2227,78.1498 C520.7757,78.1498 521.2227,78.5978 521.2227,79.1498 C521.2227,79.7018 520.7757,80.1498 520.2227,80.1498" id="Fill-25" fill="#3E4C5B"></path>
                <path d="M10.584,98.0004 L6.334,98.0004 C5.781,98.0004 5.334,97.5534 5.334,97.0004 C5.334,96.4474 5.781,96.0004 6.334,96.0004 L10.584,96.0004 C11.137,96.0004 11.584,96.4474 11.584,97.0004 C11.584,97.5534 11.137,98.0004 10.584,98.0004" id="Fill-27" fill="#3E4C5B"></path>
                <path d="M23.8164,98.0004 L14.8164,98.0004 C14.2634,98.0004 13.8164,97.5534 13.8164,97.0004 C13.8164,96.4474 14.2634,96.0004 14.8164,96.0004 L23.8164,96.0004 C24.3694,96.0004 24.8164,96.4474 24.8164,97.0004 C24.8164,97.5534 24.3694,98.0004 23.8164,98.0004" id="Fill-29" fill="#3E4C5B"></path>
                <mask id="mask-2" fill="white">
                    <use xlink:href="#path-1"></use>
                </mask>
                <g id="Clip-32"></g>
                <polygon id="Fill-31" fill="#DCE4ED" mask="url(#mask-2)" points="322.173 141.585 333.507 141.585 333.507 138.148 322.173 138.148"></polygon>
                <polygon id="Fill-33" fill="#DCE4ED" mask="url(#mask-2)" points="282.173 141.585 293.507 141.585 293.507 138.148 282.173 138.148"></polygon>
                <polygon id="Fill-34" fill="#DCE4ED" mask="url(#mask-2)" points="335.507 141.585 346.84 141.585 346.84 138.148 335.507 138.148"></polygon>
                <polygon id="Fill-35" fill="#DCE4ED" mask="url(#mask-2)" points="348.84 141.585 360.173 141.585 360.173 138.148 348.84 138.148"></polygon>
                <polygon id="Fill-36" fill="#DCE4ED" mask="url(#mask-2)" points="242.173 141.585 253.507 141.585 253.507 138.148 242.173 138.148"></polygon>
                <polygon id="Fill-37" fill="#DCE4ED" mask="url(#mask-2)" points="295.507 141.585 306.84 141.585 306.84 138.148 295.507 138.148"></polygon>
                <polygon id="Fill-38" fill="#DCE4ED" mask="url(#mask-2)" points="308.84 141.585 320.173 141.585 320.173 138.148 308.84 138.148"></polygon>
                <polygon id="Fill-39" fill="#DCE4ED" mask="url(#mask-2)" points="188.84 141.585 200.173 141.585 200.173 138.148 188.84 138.148"></polygon>
                <polygon id="Fill-40" fill="#DCE4ED" mask="url(#mask-2)" points="268.84 141.585 280.173 141.585 280.173 138.148 268.84 138.148"></polygon>
                <polygon id="Fill-41" fill="#DCE4ED" mask="url(#mask-2)" points="215.507 141.585 226.84 141.585 226.84 138.148 215.507 138.148"></polygon>
                <polygon id="Fill-42" fill="#DCE4ED" mask="url(#mask-2)" points="175.507 141.585 186.84 141.585 186.84 138.148 175.507 138.148"></polygon>
                <polygon id="Fill-43" fill="#DCE4ED" mask="url(#mask-2)" points="202.173 141.585 213.507 141.585 213.507 138.148 202.173 138.148"></polygon>
                <polygon id="Fill-44" fill="#DCE4ED" mask="url(#mask-2)" points="228.84 141.585 240.173 141.585 240.173 138.148 228.84 138.148"></polygon>
                <polygon id="Fill-45" fill="#DCE4ED" mask="url(#mask-2)" points="255.507 141.585 266.84 141.585 266.84 138.148 255.507 138.148"></polygon>
                <path d="M284.5811,117.0648 C282.1341,117.1678 279.8171,117.2808 277.6721,117.4058 C287.6241,126.8278 292.5461,129.2208 293.3741,129.5848 L295.7561,129.5848 C290.3761,125.1068 286.1901,119.4008 284.5811,117.0648" id="Fill-46" fill="#DCE4ED" mask="url(#mask-2)"></path>
                <path d="M343.8877,129.5844 L345.4727,129.5844 C346.2867,129.2284 351.2077,126.8404 361.1687,117.4094 C359.9947,117.3434 358.7647,117.2804 357.4997,117.2214 C352.5377,123.7694 346.5577,127.9274 343.8877,129.5844" id="Fill-47" fill="#F6F9FC" mask="url(#mask-2)"></path>
                <path d="M543.5107,131.5463 C542.1667,131.0603 540.8327,130.3243 539.9557,129.1813 C539.1297,128.1053 538.5047,125.8823 539.7917,124.8793 C540.3497,124.4453 541.0707,124.4873 541.7337,124.4453 C542.3977,124.4033 543.0397,124.0943 543.4717,123.5853 C543.9407,123.0303 544.0287,122.2903 544.0087,121.5783 C543.9897,120.8813 543.8457,120.2113 543.8117,119.5373 C543.7877,119.0843 543.8137,118.6293 543.9597,118.1623 C544.2257,117.3173 544.7917,116.6013 545.4427,116.0153 C545.7347,115.7523 546.0477,115.5133 546.3737,115.2923 C545.0727,115.2763 543.7677,115.7583 542.7777,116.7483 C541.5197,118.0063 541.0417,119.8033 541.5007,121.5533 C541.5817,121.8613 541.5117,122.1913 541.3097,122.4383 C541.1077,122.6863 540.8047,122.8263 540.4827,122.8063 C540.4517,122.8043 540.3247,122.7903 540.2957,122.7863 L540.2927,122.7863 C538.3807,122.7863 536.8127,124.3563 536.8127,126.2843 C536.8127,127.9473 539.0557,130.7003 543.5107,131.5463" id="Fill-48" fill="#DCE4ED" mask="url(#mask-2)"></path>
                <polygon id="Fill-49" fill="#DCE4ED" mask="url(#mask-2)" points="403.3506 142.6625 395.3756 142.6625 393.5946 145.9745 402.4426 145.9745"></polygon>
                <path d="M440.7783,145.848 C440.7993,145.888 440.8003,145.932 440.8163,145.974 L449.4503,145.974 L446.7963,142.662 L439.0643,142.662 L440.7783,145.848 Z" id="Fill-50" fill="#DCE4ED" mask="url(#mask-2)"></path>
                <path d="M391.3906,145.848 L393.1046,142.662 L385.3736,142.662 L382.7196,145.974 L391.3526,145.974 C391.3686,145.932 391.3696,145.888 391.3906,145.848" id="Fill-51" fill="#DCE4ED" mask="url(#mask-2)"></path>
                <polygon id="Fill-52" fill="#DCE4ED" mask="url(#mask-2)" points="427.6523 145.974 426.7443 142.662 417.0853 142.662 417.0853 145.974"></polygon>
                <polygon id="Fill-53" fill="#DCE4ED" mask="url(#mask-2)" points="438.5752 145.974 436.7932 142.662 428.8182 142.662 429.7272 145.974"></polygon>
                <polygon id="Fill-54" fill="#DCE4ED" mask="url(#mask-2)" points="404.5176 145.974 415.0846 145.974 415.0846 142.662 405.4256 142.662"></polygon>
                <path d="M115.7715,145.974 L120.8615,145.974 C120.8435,145.9 120.8165,145.829 120.8165,145.75 L120.8165,141.201 C119.2275,141.097 117.5565,140.998 115.8165,140.905 L115.8165,145.75 C115.8165,145.829 115.7895,145.9 115.7715,145.974" id="Fill-55" fill="#DCE4ED" mask="url(#mask-2)"></path>
                <path d="M122.7715,145.974 L125.8615,145.974 C125.8435,145.9 125.8165,145.829 125.8165,145.75 L125.8165,141.561 C124.8505,141.485 123.8505,141.41 122.8165,141.336 L122.8165,145.75 C122.8165,145.829 122.7895,145.9 122.7715,145.974" id="Fill-56" fill="#DCE4ED" mask="url(#mask-2)"></path>
                <path d="M109.7715,145.974 L113.8615,145.974 C113.8435,145.9 113.8165,145.829 113.8165,145.75 L113.8165,140.8 C112.5265,140.737 111.1875,140.677 109.8165,140.621 L109.8165,145.75 C109.8165,145.829 109.7895,145.9 109.7715,145.974" id="Fill-57" fill="#DCE4ED" mask="url(#mask-2)"></path>
                <path d="M88.7715,145.974 L93.8615,145.974 C93.8435,145.9 93.8165,145.829 93.8165,145.75 L93.8165,140.191 C92.1885,140.168 90.5285,140.15 88.8165,140.139 L88.8165,145.75 C88.8165,145.829 88.7895,145.9 88.7715,145.974" id="Fill-58" fill="#DCE4ED" mask="url(#mask-2)"></path>
                <path d="M95.7715,145.974 L100.8615,145.974 C100.8435,145.9 100.8165,145.829 100.8165,145.75 L100.8165,140.325 C99.1985,140.284 97.5285,140.25 95.8165,140.221 L95.8165,145.75 C95.8165,145.829 95.7895,145.9 95.7715,145.974" id="Fill-59" fill="#DCE4ED" mask="url(#mask-2)"></path>
                <path d="M102.7715,145.974 L107.8615,145.974 C107.8435,145.9 107.8165,145.829 107.8165,145.75 L107.8165,140.54 C106.2095,140.481 104.5315,140.428 102.8165,140.379 L102.8165,145.75 C102.8165,145.829 102.7895,145.9 102.7715,145.974" id="Fill-60" fill="#DCE4ED" mask="url(#mask-2)"></path>
                <path d="M81.7715,145.974 L86.8615,145.974 C86.8435,145.9 86.8165,145.829 86.8165,145.75 L86.8165,140.129 C85.8365,140.125 84.8625,140.12 83.8555,140.12 C83.1615,140.12 82.4995,140.124 81.8165,140.126 L81.8165,145.75 C81.8165,145.829 81.7895,145.9 81.7715,145.974" id="Fill-61" fill="#DCE4ED" mask="url(#mask-2)"></path>
                <path d="M145.7715,145.974 L147.8615,145.974 C147.8435,145.9 147.8165,145.829 147.8165,145.75 L147.8165,144.315 C147.3025,144.209 146.6385,144.08 145.8165,143.933 L145.8165,145.75 C145.8165,145.829 145.7895,145.9 145.7715,145.974" id="Fill-62" fill="#DCE4ED" mask="url(#mask-2)"></path>
                <path d="M127.7715,145.974 L130.8615,145.974 C130.8435,145.9 130.8165,145.829 130.8165,145.75 L130.8165,141.995 C129.8565,141.904 128.8605,141.814 127.8165,141.725 L127.8165,145.75 C127.8165,145.829 127.7895,145.9 127.7715,145.974" id="Fill-63" fill="#DCE4ED" mask="url(#mask-2)"></path>
                <path d="M141.7715,145.974 L143.8615,145.974 C143.8435,145.9 143.8165,145.829 143.8165,145.75 L143.8165,143.595 C143.2085,143.498 142.5365,143.396 141.8165,143.291 L141.8165,145.75 C141.8165,145.829 141.7895,145.9 141.7715,145.974" id="Fill-64" fill="#DCE4ED" mask="url(#mask-2)"></path>
                <path d="M137.7715,145.974 L139.8615,145.974 C139.8435,145.9 139.8165,145.829 139.8165,145.75 L139.8165,143.01 C139.1865,142.926 138.5165,142.84 137.8165,142.754 L137.8165,145.75 C137.8165,145.829 137.7895,145.9 137.7715,145.974" id="Fill-65" fill="#DCE4ED" mask="url(#mask-2)"></path>
                <path d="M132.7715,145.974 L135.8615,145.974 C135.8435,145.9 135.8165,145.829 135.8165,145.75 L135.8165,142.517 C134.8705,142.409 133.8745,142.3 132.8165,142.192 L132.8165,145.75 C132.8165,145.829 132.7895,145.9 132.7715,145.974" id="Fill-66" fill="#DCE4ED" mask="url(#mask-2)"></path>
                <path d="M35.7715,145.974 L38.8615,145.974 C38.8435,145.9 38.8165,145.829 38.8165,145.75 L38.8165,141.468 C37.7825,141.54 36.7805,141.615 35.8165,141.689 L35.8165,145.75 C35.8165,145.829 35.7895,145.9 35.7715,145.974" id="Fill-67" fill="#DCE4ED" mask="url(#mask-2)"></path>
                <path d="M21.7715,145.974 L23.8615,145.974 C23.8435,145.9 23.8165,145.829 23.8165,145.75 L23.8165,142.861 C23.1115,142.947 22.4455,143.032 21.8165,143.116 L21.8165,145.75 C21.8165,145.829 21.7895,145.9 21.7715,145.974" id="Fill-68" fill="#DCE4ED" mask="url(#mask-2)"></path>
                <path d="M30.7715,145.974 L33.8615,145.974 C33.8435,145.9 33.8165,145.829 33.8165,145.75 L33.8165,141.851 C32.7745,141.938 31.7695,142.026 30.8165,142.116 L30.8165,145.75 C30.8165,145.829 30.7895,145.9 30.7715,145.974" id="Fill-69" fill="#DCE4ED" mask="url(#mask-2)"></path>
                <path d="M25.7715,145.974 L28.8615,145.974 C28.8435,145.9 28.8165,145.829 28.8165,145.75 L28.8165,142.309 C27.7575,142.415 26.7555,142.521 25.8165,142.627 L25.8165,145.75 C25.8165,145.829 25.7895,145.9 25.7715,145.974" id="Fill-70" fill="#DCE4ED" mask="url(#mask-2)"></path>
                <path d="M13.7715,145.974 L15.8615,145.974 C15.8435,145.9 15.8165,145.829 15.8165,145.75 L15.8165,144.039 C14.9325,144.201 14.2705,144.336 13.8165,144.435 L13.8165,145.75 C13.8165,145.829 13.7895,145.9 13.7715,145.974" id="Fill-71" fill="#DCE4ED" mask="url(#mask-2)"></path>
                <path d="M17.7715,145.974 L19.8615,145.974 C19.8435,145.9 19.8165,145.829 19.8165,145.75 L19.8165,143.391 C19.0805,143.498 18.4235,143.6 17.8165,143.698 L17.8165,145.75 C17.8165,145.829 17.7895,145.9 17.7715,145.974" id="Fill-72" fill="#DCE4ED" mask="url(#mask-2)"></path>
                <path d="M74.7715,145.974 L79.8615,145.974 C79.8435,145.9 79.8165,145.829 79.8165,145.75 L79.8165,140.131 C78.1125,140.139 76.4435,140.15 74.8165,140.166 L74.8165,145.75 C74.8165,145.829 74.7895,145.9 74.7715,145.974" id="Fill-73" fill="#DCE4ED" mask="url(#mask-2)"></path>
                <path d="M40.7715,145.974 L45.8615,145.974 C45.8435,145.9 45.8165,145.829 45.8165,145.75 L45.8165,141.036 C44.0725,141.13 42.4005,141.229 40.8165,141.331 L40.8165,145.75 C40.8165,145.829 40.7895,145.9 40.7715,145.974" id="Fill-74" fill="#DCE4ED" mask="url(#mask-2)"></path>
                <path d="M60.7715,145.974 L65.8615,145.974 C65.8435,145.9 65.8165,145.829 65.8165,145.75 L65.8165,140.304 C64.1005,140.341 62.4335,140.382 60.8165,140.427 L60.8165,145.75 C60.8165,145.829 60.7895,145.9 60.7715,145.974" id="Fill-75" fill="#DCE4ED" mask="url(#mask-2)"></path>
                <path d="M67.7715,145.974 L72.8615,145.974 C72.8435,145.9 72.8165,145.829 72.8165,145.75 L72.8165,140.19 C71.1045,140.21 69.4405,140.237 67.8165,140.266 L67.8165,145.75 C67.8165,145.829 67.7895,145.9 67.7715,145.974" id="Fill-76" fill="#DCE4ED" mask="url(#mask-2)"></path>
                <path d="M53.7715,145.974 L58.8615,145.974 C58.8435,145.9 58.8165,145.829 58.8165,145.75 L58.8165,140.489 C57.0985,140.542 55.4205,140.599 53.8165,140.662 L53.8165,145.75 C53.8165,145.829 53.7895,145.9 53.7715,145.974" id="Fill-77" fill="#DCE4ED" mask="url(#mask-2)"></path>
                <path d="M47.7715,145.974 L51.8615,145.974 C51.8435,145.9 51.8165,145.829 51.8165,145.75 L51.8165,140.746 C50.4415,140.805 49.1065,140.867 47.8165,140.932 L47.8165,145.75 C47.8165,145.829 47.7895,145.9 47.7715,145.974" id="Fill-78" fill="#DCE4ED" mask="url(#mask-2)"></path>
                <path d="M213.0068,121.8763 C213.0638,121.9133 213.1378,121.9623 213.2018,122.0053 C214.4268,122.7153 215.5988,123.5173 216.7308,124.3783 L216.7308,44.7503 L213.0068,44.7503 L213.0068,121.8763 Z" id="Fill-79" fill="#DCE4ED" mask="url(#mask-2)"></path>
                <polygon id="Fill-80" fill="#DCE4ED" mask="url(#mask-2)" points="233.007 129.584 236.731 129.584 236.731 44.75 233.007 44.75"></polygon>
                <path d="M215.2549,129.5844 L219.5089,129.5844 C218.9309,128.9704 218.2429,128.2684 217.5339,127.6124 C217.4779,127.5634 217.4249,127.5104 217.3679,127.4614 C217.2689,127.3694 217.1679,127.2794 217.0669,127.1914 C216.7529,126.9204 216.4319,126.6614 216.1089,126.4034 C215.2779,125.7774 213.2289,124.4174 212.1499,123.7064 C210.3269,122.6544 208.4049,121.7854 206.4109,121.1094 C207.9409,122.0684 213.5849,125.8034 215.2549,129.5844" id="Fill-81" fill="#F6F9FC" mask="url(#mask-2)"></path>
                <polygon id="Fill-82" fill="#DCE4ED" mask="url(#mask-2)" points="463.298 139.234 467.022 139.234 467.022 113.507 463.298 113.507"></polygon>
                <path d="M13.8506,121.8422 C14.0016,121.8422 14.1566,121.8082 14.3006,121.7352 C25.9106,115.8722 51.9836,112.0842 80.7256,112.0842 C108.7336,112.0842 134.5336,115.7382 146.4546,121.3942 C146.9556,121.6292 147.5496,121.4182 147.7866,120.9192 C148.0236,120.4202 147.8106,119.8232 147.3116,119.5872 C135.1436,113.8152 109.0066,110.0842 80.7256,110.0842 C51.6936,110.0842 25.2666,113.9562 13.3986,119.9492 C12.9066,120.1982 12.7076,120.8002 12.9566,121.2932 C13.1326,121.6412 13.4856,121.8422 13.8506,121.8422" id="Fill-83" fill="#3E4C5B" mask="url(#mask-2)"></path>
                <path d="M505.265,145.974 L512.641,145.974 L512.641,141.234 L505.265,141.234 L505.265,145.974 Z M495.888,145.974 L503.265,145.974 L503.265,141.234 L495.888,141.234 L495.888,145.974 Z M486.511,145.974 L493.888,145.974 L493.888,141.234 L486.511,141.234 L486.511,145.974 Z M477.134,145.974 L484.511,145.974 L484.511,141.234 L477.134,141.234 L477.134,145.974 Z M463.298,139.234 L463.298,113.507 L500.293,113.507 L506.265,113.507 L519.404,113.507 L525.377,113.507 L526.562,113.507 L526.562,139.234 L463.298,139.234 Z M501.293,111.507 L505.265,111.507 L505.265,109.417 L501.293,109.417 L501.293,111.507 Z M520.404,111.507 L524.377,111.507 L524.377,109.417 L520.404,109.417 L520.404,111.507 Z M440.816,145.974 C440.801,145.932 440.8,145.888 440.778,145.848 L427.572,121.301 C426.8,119.865 426.558,118.194 426.891,116.596 L427.251,114.871 L429.31,114.871 L429.229,115.202 C428.585,117.872 429.227,120.745 430.944,122.888 L449.45,145.974 L440.816,145.974 Z M429.728,145.974 L422.717,120.419 C422.483,119.571 422.414,118.7 422.511,117.83 C422.595,117.069 422.707,116.049 422.837,114.871 L425.208,114.871 L424.934,116.188 C424.504,118.245 424.815,120.399 425.811,122.248 L438.575,145.974 L429.728,145.974 Z M417.085,145.974 L417.085,114.871 L420.824,114.871 C420.704,115.955 420.601,116.897 420.522,117.611 C420.398,118.732 420.487,119.855 420.787,120.949 L427.652,145.974 L417.085,145.974 Z M417.085,101.948 C418.974,101.97 420.688,102.057 422.224,102.19 C421.849,105.595 421.405,109.606 421.045,112.871 L417.085,112.871 L417.085,101.948 Z M424.214,102.394 C425.536,102.553 426.698,102.739 427.7,102.931 L425.626,112.871 L423.058,112.871 C423.413,109.642 423.847,105.727 424.214,102.394 L424.214,102.394 Z M429.653,103.357 C430.697,103.614 431.464,103.852 431.933,104.015 L429.792,112.871 L427.668,112.871 L429.653,103.357 Z M415.085,112.871 L411.124,112.871 C410.765,109.609 410.321,105.603 409.946,102.199 C411.468,102.065 413.181,101.976 415.085,101.95 L415.085,112.871 Z M415.085,145.974 L404.518,145.974 L411.381,120.95 C411.682,119.859 411.771,118.736 411.647,117.612 C411.569,116.897 411.465,115.956 411.345,114.871 L415.085,114.871 L415.085,145.974 Z M393.595,145.974 L406.358,122.248 C407.354,120.397 407.666,118.245 407.235,116.188 L406.96,114.871 L409.333,114.871 C409.463,116.049 409.575,117.069 409.659,117.83 C409.755,118.703 409.686,119.573 409.452,120.419 L402.442,145.974 L393.595,145.974 Z M391.353,145.974 L382.72,145.974 L401.226,122.889 C402.943,120.746 403.584,117.872 402.939,115.202 L402.86,114.871 L404.918,114.871 L405.278,116.597 C405.612,118.193 405.37,119.864 404.597,121.301 L391.391,145.848 C391.369,145.888 391.368,145.932 391.353,145.974 L391.353,145.974 Z M400.264,104.127 C400.6,103.992 401.349,103.719 402.526,103.41 L404.501,112.871 L402.393,112.871 C402.388,112.871 402.383,112.874 402.377,112.874 L400.264,104.127 Z M407.956,102.407 C408.324,105.737 408.756,109.646 409.112,112.871 L406.543,112.871 L404.475,102.961 C405.461,102.763 406.618,102.572 407.956,102.407 L407.956,102.407 Z M348.761,145.974 C348.812,145.854 348.84,145.723 348.84,145.584 L348.84,143.584 L360.173,143.584 L360.173,145.584 C360.173,145.723 360.201,145.854 360.251,145.974 L348.761,145.974 Z M335.429,145.974 C335.479,145.854 335.507,145.723 335.507,145.584 L335.507,143.584 L346.84,143.584 L346.84,145.584 C346.84,145.723 346.868,145.854 346.919,145.974 L335.429,145.974 Z M322.095,145.974 C322.145,145.854 322.173,145.723 322.173,145.584 L322.173,143.584 L333.507,143.584 L333.507,145.584 C333.507,145.723 333.535,145.854 333.585,145.974 L322.095,145.974 Z M308.761,145.974 C308.812,145.854 308.84,145.723 308.84,145.584 L308.84,143.584 L320.173,143.584 L320.173,145.584 C320.173,145.723 320.201,145.854 320.251,145.974 L308.761,145.974 Z M295.429,145.974 C295.479,145.854 295.507,145.723 295.507,145.584 L295.507,143.584 L306.84,143.584 L306.84,145.584 C306.84,145.723 306.868,145.854 306.919,145.974 L295.429,145.974 Z M282.095,145.974 C282.145,145.854 282.173,145.723 282.173,145.584 L282.173,143.584 L293.507,143.584 L293.507,145.584 C293.507,145.723 293.535,145.854 293.585,145.974 L282.095,145.974 Z M268.761,145.974 C268.812,145.854 268.84,145.723 268.84,145.584 L268.84,143.584 L280.173,143.584 L280.173,145.584 C280.173,145.723 280.201,145.854 280.251,145.974 L268.761,145.974 Z M255.429,145.974 C255.479,145.854 255.507,145.723 255.507,145.584 L255.507,143.584 L266.84,143.584 L266.84,145.584 C266.84,145.723 266.868,145.854 266.919,145.974 L255.429,145.974 Z M242.095,145.974 C242.145,145.854 242.173,145.723 242.173,145.584 L242.173,143.584 L253.507,143.584 L253.507,145.584 C253.507,145.723 253.535,145.854 253.585,145.974 L242.095,145.974 Z M228.761,145.974 C228.812,145.854 228.84,145.723 228.84,145.584 L228.84,143.584 L240.173,143.584 L240.173,145.584 C240.173,145.723 240.201,145.854 240.251,145.974 L228.761,145.974 Z M215.429,145.974 C215.479,145.854 215.507,145.723 215.507,145.584 L215.507,143.584 L226.84,143.584 L226.84,145.584 C226.84,145.723 226.868,145.854 226.919,145.974 L215.429,145.974 Z M202.095,145.974 C202.145,145.854 202.173,145.723 202.173,145.584 L202.173,143.584 L213.507,143.584 L213.507,145.584 C213.507,145.723 213.535,145.854 213.585,145.974 L202.095,145.974 Z M188.761,145.974 C188.812,145.854 188.84,145.723 188.84,145.584 L188.84,143.584 L200.173,143.584 L200.173,145.584 C200.173,145.723 200.201,145.854 200.251,145.974 L188.761,145.974 Z M175.429,145.974 C175.479,145.854 175.507,145.723 175.507,145.584 L175.507,143.584 L186.84,143.584 L186.84,145.584 C186.84,145.723 186.868,145.854 186.919,145.974 L175.429,145.974 Z M175.507,141.584 L186.84,141.584 L186.84,131.584 L175.507,131.584 L175.507,141.584 Z M188.84,141.584 L200.173,141.584 L200.173,131.584 L188.84,131.584 L188.84,141.584 Z M202.173,141.584 L213.507,141.584 L213.507,131.584 L202.173,131.584 L202.173,141.584 Z M172.73,129.584 C178.786,123.118 187.26,119.417 196.137,119.417 C201.845,119.417 207.341,120.93 212.149,123.706 C213.229,124.417 215.278,125.778 216.108,126.404 C216.432,126.662 216.753,126.92 217.067,127.192 C217.168,127.28 217.269,127.37 217.368,127.461 C217.425,127.51 217.478,127.563 217.534,127.613 C218.243,128.268 218.931,128.97 219.509,129.584 L172.73,129.584 Z M213.007,44.75 L223.507,44.75 L223.507,129.584 L222.222,129.584 C221.196,128.365 220.095,127.231 218.931,126.18 C218.877,126.13 218.824,126.082 218.771,126.034 C218.614,125.894 218.458,125.751 218.298,125.615 C217.997,125.353 217.696,125.1 217.4,124.872 C217.386,124.862 217.363,124.845 217.349,124.834 C216.033,123.786 214.647,122.842 213.202,122.005 C213.138,121.962 213.063,121.913 213.007,121.876 L213.007,44.75 Z M226.84,131.584 L226.84,141.584 L215.507,141.584 L215.507,131.584 L221.759,131.584 L224.507,131.584 L226.84,131.584 Z M225.507,129.584 L231.007,129.584 L231.007,99.25 L225.507,99.25 L225.507,129.584 Z M225.507,97.25 L231.007,97.25 L231.007,96.25 L225.507,96.25 L225.507,97.25 Z M225.507,94.25 L231.007,94.25 L231.007,91.25 L225.507,91.25 L225.507,94.25 Z M225.507,89.25 L231.007,89.25 L231.007,87.167 L225.507,87.167 L225.507,89.25 Z M232.007,131.584 L240.173,131.584 L240.173,141.584 L228.84,141.584 L228.84,131.584 L232.007,131.584 Z M233.007,129.584 L243.507,129.584 L243.507,44.75 L233.007,44.75 L233.007,129.584 Z M253.507,131.584 L253.507,141.584 L242.173,141.584 L242.173,131.584 L244.507,131.584 L253.507,131.584 Z M255.507,141.584 L266.84,141.584 L266.84,131.584 L255.507,131.584 L255.507,141.584 Z M268.84,141.584 L280.173,141.584 L280.173,131.584 L268.84,131.584 L268.84,141.584 Z M282.173,141.584 L293.507,141.584 L293.507,131.584 L282.173,131.584 L282.173,141.584 Z M295.507,141.584 L306.84,141.584 L306.84,131.584 L295.507,131.584 L295.507,141.584 Z M308.84,141.584 L320.173,141.584 L320.173,131.584 L308.84,131.584 L308.84,141.584 Z M322.173,141.584 L333.507,141.584 L333.507,131.584 L322.173,131.584 L322.173,141.584 Z M335.507,141.584 L346.84,141.584 L346.84,131.584 L335.507,131.584 L335.507,141.584 Z M277.672,117.406 C288.521,116.776 303.548,116.417 319.423,116.417 C334.706,116.417 350.073,116.786 361.169,117.41 C351.208,126.84 346.287,129.228 345.473,129.584 L293.374,129.584 C292.546,129.221 287.624,126.828 277.672,117.406 L277.672,117.406 Z M348.84,141.584 L360.173,141.584 L360.173,131.584 L348.84,131.584 L348.84,141.584 Z M145.771,145.974 C145.789,145.9 145.816,145.829 145.816,145.75 L145.816,140.923 C146.423,141.14 147.017,141.359 147.582,141.582 C147.659,141.613 147.738,141.617 147.816,141.627 L147.816,145.75 C147.816,145.829 147.844,145.9 147.861,145.974 L145.771,145.974 Z M141.771,145.974 C141.789,145.9 141.816,145.829 141.816,145.75 L141.816,139.628 C142.503,139.829 143.167,140.036 143.816,140.245 L143.816,145.75 C143.816,145.829 143.844,145.9 143.861,145.974 L141.771,145.974 Z M137.771,145.974 C137.789,145.9 137.816,145.829 137.816,145.75 L137.816,138.552 C138.497,138.721 139.164,138.893 139.816,139.069 L139.816,145.75 C139.816,145.829 139.844,145.9 139.861,145.974 L137.771,145.974 Z M132.771,145.974 C132.789,145.9 132.816,145.829 132.816,145.75 L132.816,137.421 C133.841,137.632 134.842,137.85 135.816,138.074 L135.816,145.75 C135.816,145.829 135.844,145.9 135.861,145.974 L132.771,145.974 Z M127.771,145.974 C127.789,145.9 127.816,145.829 127.816,145.75 L127.816,136.473 C128.838,136.651 129.835,136.835 130.816,137.024 L130.816,145.75 C130.816,145.829 130.844,145.9 130.861,145.974 L127.771,145.974 Z M122.771,145.974 C122.789,145.9 122.816,145.829 122.816,145.75 L122.816,135.679 C123.831,135.828 124.834,135.979 125.816,136.138 L125.816,145.75 C125.816,145.829 125.844,145.9 125.861,145.974 L122.771,145.974 Z M115.771,145.974 C115.789,145.9 115.816,145.829 115.816,145.75 L115.816,134.768 C117.518,134.963 119.185,135.173 120.816,135.396 L120.816,145.75 C120.816,145.829 120.844,145.9 120.861,145.974 L115.771,145.974 Z M109.771,145.974 C109.789,145.9 109.816,145.829 109.816,145.75 L109.816,134.151 C111.167,134.275 112.501,134.407 113.816,134.547 L113.816,145.75 C113.816,145.829 113.844,145.9 113.861,145.974 L109.771,145.974 Z M102.771,145.974 C102.789,145.9 102.816,145.829 102.816,145.75 L102.816,133.597 C104.504,133.71 106.172,133.836 107.816,133.974 L107.816,145.75 C107.816,145.829 107.844,145.9 107.861,145.974 L102.771,145.974 Z M95.771,145.974 C95.789,145.9 95.816,145.829 95.816,145.75 L95.816,133.206 C97.499,133.282 99.167,133.369 100.816,133.468 L100.816,145.75 C100.816,145.829 100.844,145.9 100.861,145.974 L95.771,145.974 Z M88.771,145.974 C88.789,145.9 88.816,145.829 88.816,145.75 L88.816,132.969 C90.495,133.008 92.163,133.059 93.816,133.123 L93.816,145.75 C93.816,145.829 93.844,145.9 93.861,145.974 L88.771,145.974 Z M81.771,145.974 C81.789,145.9 81.816,145.829 81.816,145.75 L81.816,132.879 C83.491,132.883 85.159,132.9 86.816,132.929 L86.816,145.75 C86.816,145.829 86.844,145.9 86.861,145.974 L81.771,145.974 Z M81.816,126.879 C83.491,126.883 85.159,126.9 86.816,126.929 L86.816,130.929 C85.159,130.9 83.491,130.883 81.816,130.879 L81.816,126.879 Z M81.816,115.754 C83.497,115.758 85.166,115.773 86.816,115.801 L86.816,124.929 C85.159,124.9 83.491,124.883 81.816,124.879 L81.816,115.754 Z M88.816,126.969 C90.495,127.008 92.163,127.059 93.816,127.123 L93.816,131.122 C92.162,131.059 90.495,131.007 88.816,130.968 L88.816,126.969 Z M88.816,115.843 C90.502,115.882 92.169,115.934 93.816,115.997 L93.816,125.122 C92.162,125.059 90.495,125.007 88.816,124.968 L88.816,115.843 Z M95.816,127.206 C97.499,127.282 99.167,127.369 100.816,127.468 L100.816,131.468 C99.167,131.369 97.499,131.281 95.816,131.206 L95.816,127.206 Z M95.816,116.079 C97.505,116.155 99.174,116.242 100.816,116.342 L100.816,125.468 C99.167,125.369 97.499,125.281 95.816,125.206 L95.816,116.079 Z M102.816,127.597 C104.504,127.71 106.172,127.836 107.816,127.974 L107.816,131.972 C106.171,131.833 104.504,131.708 102.816,131.596 L102.816,127.597 Z M102.816,116.472 C104.513,116.587 106.179,116.717 107.816,116.859 L107.816,125.972 C106.171,125.833 104.504,125.708 102.816,125.596 L102.816,116.472 Z M109.816,128.151 C111.167,128.275 112.501,128.407 113.816,128.547 L113.816,132.54 C112.501,132.401 111.167,132.27 109.816,132.147 L109.816,128.151 Z M109.816,117.04 C111.172,117.169 112.507,117.305 113.816,117.452 L113.816,126.54 C112.501,126.401 111.167,126.27 109.816,126.147 L109.816,117.04 Z M115.816,128.768 C117.518,128.963 119.185,129.173 120.816,129.396 L120.816,133.384 C119.184,133.162 117.517,132.953 115.816,132.76 L115.816,128.768 Z M115.816,117.681 C117.534,117.889 119.204,118.113 120.83,118.35 C120.828,118.373 120.816,118.393 120.816,118.417 L120.816,127.384 C119.184,127.162 117.517,126.953 115.816,126.76 L115.816,117.681 Z M122.816,129.679 C123.831,129.828 124.834,129.979 125.816,130.138 L125.816,134.12 C124.832,133.963 123.831,133.811 122.816,133.664 L122.816,129.679 Z M122.816,118.65 C123.839,118.811 124.836,118.979 125.816,119.152 L125.816,128.12 C124.832,127.963 123.831,127.811 122.816,127.664 L122.816,118.65 Z M127.816,130.473 C128.838,130.651 129.835,130.835 130.816,131.024 L130.816,134.994 C129.835,134.808 128.835,134.627 127.816,134.453 L127.816,130.473 Z M127.816,119.519 C128.84,119.713 129.846,119.913 130.816,120.121 L130.816,128.994 C129.835,128.808 128.835,128.627 127.816,128.453 L127.816,119.519 Z M132.816,131.421 C133.841,131.632 134.842,131.85 135.816,132.074 L135.816,136.026 C134.843,135.806 133.839,135.594 132.816,135.386 L132.816,131.421 Z M132.816,120.569 C133.86,120.812 134.863,121.065 135.835,121.324 C135.832,121.356 135.816,121.384 135.816,121.417 L135.816,130.026 C134.843,129.806 133.839,129.594 132.816,129.386 L132.816,120.569 Z M137.816,132.552 C138.497,132.721 139.164,132.893 139.816,133.069 L139.816,137.003 C139.162,136.831 138.498,136.661 137.816,136.495 L137.816,132.552 Z M137.816,121.875 C138.505,122.078 139.171,122.284 139.816,122.494 L139.816,131.003 C139.162,130.831 138.498,130.662 137.816,130.495 L137.816,121.875 Z M141.816,133.628 C142.503,133.829 143.167,134.036 143.816,134.245 L143.816,138.148 C143.168,137.946 142.499,137.747 141.816,137.552 L141.816,133.628 Z M141.816,123.187 C142.511,123.441 143.185,123.7 143.816,123.964 L143.816,132.148 C143.168,131.946 142.499,131.747 141.816,131.552 L141.816,123.187 Z M145.816,134.923 C146.423,135.14 147.017,135.359 147.582,135.582 C147.659,135.613 147.738,135.617 147.816,135.627 L147.816,139.532 C147.173,139.285 146.509,139.041 145.816,138.803 L145.816,134.923 Z M145.816,124.879 C146.54,125.237 147.206,125.603 147.816,125.977 L147.816,133.532 C147.173,133.285 146.509,133.041 145.816,132.803 L145.816,124.879 Z M74.771,145.974 C74.789,145.9 74.816,145.829 74.816,145.75 L74.816,132.932 C76.474,132.902 78.142,132.885 79.816,132.879 L79.816,145.75 C79.816,145.829 79.844,145.9 79.861,145.974 L74.771,145.974 Z M67.771,145.974 C67.789,145.9 67.816,145.829 67.816,145.75 L67.816,133.128 C69.47,133.064 71.138,133.012 72.816,132.972 L72.816,145.75 C72.816,145.829 72.844,145.9 72.861,145.974 L67.771,145.974 Z M60.771,145.974 C60.789,145.9 60.816,145.829 60.816,145.75 L60.816,133.476 C62.466,133.375 64.134,133.287 65.816,133.212 L65.816,145.75 C65.816,145.829 65.844,145.9 65.861,145.974 L60.771,145.974 Z M53.771,145.974 C53.789,145.9 53.816,145.829 53.816,145.75 L53.816,133.985 C55.46,133.846 57.128,133.72 58.816,133.606 L58.816,145.75 C58.816,145.829 58.844,145.9 58.861,145.974 L53.771,145.974 Z M47.771,145.974 C47.789,145.9 47.816,145.829 47.816,145.75 L47.816,134.561 C49.132,134.42 50.465,134.286 51.816,134.162 L51.816,145.75 C51.816,145.829 51.844,145.9 51.861,145.974 L47.771,145.974 Z M40.771,145.974 C40.789,145.9 40.816,145.829 40.816,145.75 L40.816,135.413 C42.447,135.19 44.115,134.98 45.816,134.784 L45.816,145.75 C45.816,145.829 45.844,145.9 45.861,145.974 L40.771,145.974 Z M35.771,145.974 C35.789,145.9 35.816,145.829 35.816,145.75 L35.816,136.161 C36.8,136 37.802,135.847 38.816,135.699 L38.816,145.75 C38.816,145.829 38.844,145.9 38.861,145.974 L35.771,145.974 Z M30.771,145.974 C30.789,145.9 30.816,145.829 30.816,145.75 L30.816,137.049 C31.798,136.86 32.796,136.675 33.816,136.497 L33.816,145.75 C33.816,145.829 33.844,145.9 33.861,145.974 L30.771,145.974 Z M25.771,145.974 C25.789,145.9 25.816,145.829 25.816,145.75 L25.816,138.105 C26.791,137.88 27.791,137.661 28.816,137.449 L28.816,145.75 C28.816,145.829 28.844,145.9 28.861,145.974 L25.771,145.974 Z M21.771,145.974 C21.789,145.9 21.816,145.829 21.816,145.75 L21.816,139.104 C22.468,138.928 23.136,138.755 23.816,138.585 L23.816,145.75 C23.816,145.829 23.844,145.9 23.861,145.974 L21.771,145.974 Z M17.771,145.974 C17.789,145.9 17.816,145.829 17.816,145.75 L17.816,140.288 C18.466,140.078 19.128,139.87 19.816,139.666 L19.816,145.75 C19.816,145.829 19.844,145.9 19.861,145.974 L17.771,145.974 Z M13.771,145.974 C13.789,145.9 13.816,145.829 13.816,145.75 L13.816,141.648 C13.938,141.648 14.063,141.63 14.185,141.582 C14.709,141.375 15.257,141.171 15.816,140.97 L15.816,145.75 C15.816,145.829 15.844,145.9 15.861,145.974 L13.771,145.974 Z M13.816,135.649 C13.938,135.649 14.063,135.63 14.185,135.582 C14.709,135.375 15.257,135.171 15.816,134.97 L15.816,138.85 C15.125,139.09 14.458,139.334 13.816,139.582 L13.816,135.649 Z M13.816,125.977 C14.427,125.603 15.093,125.237 15.816,124.879 L15.816,132.85 C15.125,133.09 14.458,133.334 13.816,133.582 L13.816,125.977 Z M17.816,134.288 C18.466,134.078 19.128,133.87 19.816,133.666 L19.816,137.59 C19.134,137.786 18.464,137.986 17.816,138.189 L17.816,134.288 Z M17.816,123.965 C18.448,123.701 19.122,123.443 19.816,123.189 L19.816,131.59 C19.134,131.787 18.464,131.986 17.816,132.189 L17.816,123.965 Z M21.816,133.104 C22.468,132.928 23.136,132.755 23.816,132.585 L23.816,136.529 C23.136,136.696 22.47,136.866 21.816,137.038 L21.816,133.104 Z M21.816,122.496 C22.462,122.287 23.128,122.079 23.816,121.878 L23.816,130.529 C23.136,130.696 22.47,130.866 21.816,131.038 L21.816,122.496 Z M28.816,131.449 L28.816,135.413 C27.794,135.622 26.79,135.835 25.816,136.057 L25.816,132.105 C26.791,131.88 27.791,131.661 28.816,131.449 L28.816,131.449 Z M28.816,120.574 L28.816,129.413 C27.794,129.622 26.79,129.835 25.816,130.057 L25.816,121.417 C25.816,121.385 25.802,121.359 25.798,121.328 C26.771,121.069 27.772,120.816 28.816,120.574 L28.816,120.574 Z M30.816,131.049 C31.798,130.86 32.796,130.675 33.816,130.497 L33.816,134.475 C32.797,134.651 31.798,134.832 30.816,135.019 L30.816,131.049 Z M30.816,120.125 C31.787,119.917 32.793,119.718 33.816,119.524 L33.816,128.475 C32.797,128.651 31.798,128.832 30.816,129.019 L30.816,120.125 Z M35.816,130.161 C36.8,130 37.802,129.847 38.816,129.699 L38.816,133.684 C37.802,133.831 36.8,133.984 35.816,134.142 L35.816,130.161 Z M35.816,119.158 C36.797,118.985 37.794,118.817 38.816,118.656 L38.816,127.684 C37.802,127.831 36.8,127.984 35.816,128.142 L35.816,119.158 Z M45.816,128.784 L45.816,132.776 C44.116,132.97 42.449,133.18 40.816,133.402 L40.816,129.413 C42.447,129.19 44.115,128.98 45.816,128.784 L45.816,128.784 Z M45.816,117.688 L45.816,126.776 C44.116,126.97 42.449,127.18 40.816,127.402 L40.816,118.417 C40.816,118.395 40.806,118.377 40.804,118.356 C42.43,118.119 44.099,117.895 45.816,117.688 L45.816,117.688 Z M47.816,128.561 C49.132,128.42 50.465,128.287 51.816,128.162 L51.816,132.159 C50.466,132.283 49.132,132.414 47.816,132.555 L47.816,128.561 Z M47.816,117.457 C49.126,117.311 50.461,117.175 51.816,117.046 L51.816,126.159 C50.466,126.283 49.132,126.414 47.816,126.555 L47.816,117.457 Z M53.816,127.985 C55.46,127.846 57.128,127.72 58.816,127.606 L58.816,131.605 C57.129,131.718 55.462,131.844 53.816,131.983 L53.816,127.985 Z M53.816,116.865 C55.454,116.722 57.12,116.593 58.816,116.477 L58.816,125.605 C57.129,125.718 55.462,125.844 53.816,125.983 L53.816,116.865 Z M60.816,127.476 C62.466,127.375 64.134,127.287 65.816,127.212 L65.816,131.211 C64.134,131.287 62.466,131.375 60.816,131.475 L60.816,127.476 Z M60.816,116.348 C62.459,116.247 64.127,116.16 65.816,116.084 L65.816,125.211 C64.134,125.287 62.466,125.375 60.816,125.475 L60.816,116.348 Z M67.816,127.128 C69.47,127.064 71.138,127.012 72.816,126.972 L72.816,130.972 C71.138,131.012 69.471,131.064 67.816,131.127 L67.816,127.128 Z M67.816,116.001 C69.465,115.938 71.131,115.885 72.816,115.845 L72.816,124.972 C71.138,125.012 69.471,125.064 67.816,125.127 L67.816,116.001 Z M74.816,126.932 C76.474,126.902 78.142,126.885 79.816,126.879 L79.816,130.879 C78.142,130.885 76.474,130.902 74.816,130.932 L74.816,126.932 Z M74.816,115.804 C76.467,115.775 78.136,115.76 79.816,115.754 L79.816,124.879 C78.142,124.885 76.474,124.902 74.816,124.932 L74.816,115.804 Z M536.812,126.285 C536.812,124.356 538.381,122.787 540.293,122.787 L540.296,122.787 C540.325,122.79 540.452,122.804 540.482,122.806 C540.805,122.827 541.107,122.686 541.31,122.438 C541.512,122.191 541.582,121.862 541.501,121.553 C541.042,119.803 541.52,118.006 542.777,116.748 C544.727,114.799 547.899,114.799 549.849,116.748 C551.105,118.006 551.583,119.801 551.124,121.55 C551.044,121.859 551.114,122.187 551.315,122.434 C551.517,122.682 551.812,122.823 552.141,122.803 C554.039,122.713 555.636,124.105 555.799,125.978 C555.854,126.607 555.547,127.678 554.518,128.802 C553.565,129.841 551.386,131.512 547.312,131.759 L547.312,130.409 L550.229,127.493 C550.619,127.102 550.619,126.469 550.229,126.078 C549.838,125.688 549.205,125.688 548.814,126.078 L547.312,127.58 L547.312,124.265 C547.312,123.712 546.865,123.265 546.312,123.265 C545.76,123.265 545.312,123.712 545.312,124.265 L545.312,127.6 L543.791,126.078 C543.4,125.688 542.768,125.688 542.377,126.078 C541.986,126.469 541.986,127.102 542.377,127.493 L545.312,130.428 L545.312,131.774 C539.655,131.424 536.812,128.16 536.812,126.285 L536.812,126.285 Z M557.667,145.974 L547.312,145.974 L547.312,133.783 C552.179,133.527 554.82,131.433 555.992,130.153 C557.238,128.792 557.911,127.165 557.791,125.803 C557.569,123.269 555.674,121.291 553.263,120.878 C553.439,118.837 552.72,116.792 551.263,115.334 C548.532,112.606 544.092,112.606 541.363,115.334 C539.908,116.789 539.188,118.829 539.361,120.867 C536.78,121.319 534.812,123.577 534.812,126.285 C534.812,129.294 538.46,133.402 545.312,133.773 L545.312,145.974 L514.641,145.974 L514.641,141.234 L527.562,141.234 C528.114,141.234 528.562,140.787 528.562,140.234 L528.562,112.507 C528.562,111.954 528.114,111.507 527.562,111.507 L526.377,111.507 L526.377,108.417 C526.377,107.865 525.93,107.417 525.377,107.417 L519.404,107.417 C518.852,107.417 518.404,107.865 518.404,108.417 L518.404,111.507 L507.265,111.507 L507.265,108.417 C507.265,107.865 506.817,107.417 506.265,107.417 L500.293,107.417 C499.74,107.417 499.293,107.865 499.293,108.417 L499.293,111.507 L462.298,111.507 C461.745,111.507 461.298,111.954 461.298,112.507 L461.298,140.234 C461.298,140.787 461.745,141.234 462.298,141.234 L475.134,141.234 L475.134,145.974 L451.934,145.974 C451.897,145.877 451.858,145.782 451.79,145.697 L432.505,121.637 C431.171,119.974 430.673,117.744 431.173,115.67 L434.838,100.505 C434.968,99.968 434.638,99.428 434.102,99.298 C433.569,99.166 433.024,99.498 432.895,100.035 L432.405,102.06 C431.866,101.876 431.095,101.64 430.065,101.387 L430.687,98.405 C430.801,97.865 430.454,97.334 429.913,97.222 C429.375,97.106 428.842,97.456 428.73,97.996 L428.111,100.964 C427.054,100.76 425.826,100.566 424.435,100.401 C424.773,97.333 425.017,95.135 425.017,95.135 L423.028,94.915 C423.028,94.915 422.784,97.121 422.444,100.198 C420.843,100.06 419.056,99.97 417.085,99.948 L417.085,86.854 L423.229,86.854 C423.781,86.854 424.229,86.406 424.229,85.854 C424.229,85.302 423.781,84.854 423.229,84.854 L417.085,84.854 L417.085,79.15 C417.085,78.598 416.638,78.15 416.085,78.15 C415.532,78.15 415.085,78.598 415.085,79.15 L415.085,84.854 L409.113,84.854 C408.561,84.854 408.113,85.302 408.113,85.854 C408.113,86.406 408.561,86.854 409.113,86.854 L415.085,86.854 L415.085,99.95 C413.1,99.976 411.313,100.068 409.726,100.207 C409.386,97.126 409.141,94.915 409.141,94.915 L407.152,95.135 C407.152,95.135 407.396,97.34 407.735,100.413 C406.329,100.585 405.107,100.786 404.064,100.995 L403.438,97.996 C403.326,97.456 402.789,97.106 402.256,97.222 C401.715,97.334 401.368,97.865 401.481,98.405 L402.115,101.442 C401.04,101.721 400.267,101.982 399.789,102.163 L399.274,100.035 C399.146,99.498 398.603,99.166 398.067,99.298 C397.531,99.428 397.201,99.968 397.331,100.505 L400.996,115.67 C401.496,117.744 400.998,119.975 399.665,121.638 L380.379,145.697 C380.312,145.782 380.272,145.877 380.235,145.974 L362.095,145.974 C362.146,145.854 362.173,145.723 362.173,145.584 L362.173,143.584 L369.673,143.584 C370.226,143.584 370.673,143.137 370.673,142.584 C370.673,142.032 370.226,141.584 369.673,141.584 L362.173,141.584 L362.173,131.584 L369.673,131.584 C370.226,131.584 370.673,131.137 370.673,130.584 C370.673,130.032 370.226,129.584 369.673,129.584 L349.517,129.584 C352.425,127.69 357.222,124.061 364.217,117.264 C364.241,117.24 364.251,117.207 364.273,117.182 C364.332,117.112 364.39,117.041 364.428,116.956 C364.454,116.897 364.461,116.834 364.476,116.772 C364.488,116.717 364.515,116.667 364.518,116.61 C364.519,116.602 364.515,116.594 364.515,116.586 C364.518,116.51 364.498,116.438 364.483,116.363 C364.474,116.309 364.474,116.252 364.454,116.202 C364.437,116.152 364.4,116.111 364.374,116.064 C364.336,115.996 364.302,115.927 364.249,115.87 C364.243,115.865 364.242,115.856 364.236,115.85 C364.2,115.812 364.152,115.795 364.111,115.764 C364.055,115.721 364.003,115.675 363.937,115.645 C363.865,115.612 363.79,115.6 363.714,115.584 C363.668,115.576 363.629,115.552 363.582,115.549 C352.333,114.84 335.825,114.417 319.423,114.417 C302.364,114.417 286.268,114.83 275.261,115.549 C275.212,115.552 275.171,115.577 275.124,115.586 C275.051,115.602 274.978,115.613 274.908,115.645 C274.841,115.676 274.788,115.723 274.729,115.767 C274.69,115.797 274.645,115.814 274.609,115.85 C274.604,115.856 274.602,115.865 274.596,115.87 C274.543,115.928 274.51,115.996 274.472,116.065 C274.444,116.111 274.409,116.153 274.391,116.203 C274.372,116.254 274.372,116.311 274.361,116.367 C274.348,116.44 274.329,116.512 274.331,116.587 C274.332,116.596 274.327,116.604 274.328,116.613 C274.332,116.667 274.356,116.712 274.368,116.764 C274.384,116.83 274.393,116.898 274.421,116.96 C274.456,117.038 274.51,117.102 274.562,117.166 C274.587,117.198 274.6,117.236 274.629,117.264 C274.64,117.274 274.649,117.284 274.66,117.294 C274.661,117.295 274.663,117.297 274.665,117.298 C281.642,124.073 286.427,127.694 289.329,129.584 L245.507,129.584 L245.507,43.75 C245.507,43.198 245.06,42.75 244.507,42.75 L232.007,42.75 C231.454,42.75 231.007,43.198 231.007,43.75 L231.007,85.167 L225.507,85.167 L225.507,43.75 C225.507,43.198 225.06,42.75 224.507,42.75 L212.007,42.75 C211.454,42.75 211.007,43.198 211.007,43.75 L211.007,120.832 C206.434,118.613 201.369,117.417 196.137,117.417 C186.385,117.417 177.083,121.61 170.616,128.918 C170.447,129.11 170.374,129.348 170.374,129.584 L165.007,129.584 C164.454,129.584 164.007,130.032 164.007,130.584 C164.007,131.137 164.454,131.584 165.007,131.584 L173.507,131.584 L173.507,141.584 L165.007,141.584 C164.454,141.584 164.007,142.032 164.007,142.584 C164.007,143.137 164.454,143.584 165.007,143.584 L173.507,143.584 L173.507,145.584 C173.507,145.723 173.535,145.854 173.585,145.974 L149.771,145.974 C149.789,145.9 149.816,145.829 149.816,145.75 L149.816,125.417 C149.816,125.382 149.8,125.352 149.796,125.318 C149.789,125.249 149.777,125.186 149.757,125.12 C149.737,125.058 149.713,125.001 149.683,124.945 C149.653,124.891 149.62,124.842 149.58,124.794 C149.535,124.739 149.486,124.692 149.431,124.647 C149.405,124.626 149.39,124.598 149.361,124.579 C139.095,117.9 112.854,113.75 80.883,113.75 C48.829,113.75 22.538,117.9 12.271,124.579 C12.243,124.598 12.228,124.626 12.202,124.647 C12.146,124.692 12.098,124.739 12.053,124.794 C12.013,124.842 11.979,124.891 11.95,124.946 C11.92,125.001 11.896,125.058 11.876,125.12 C11.855,125.186 11.844,125.249 11.837,125.318 C11.833,125.352 11.816,125.382 11.816,125.417 L11.816,145.75 C11.816,145.829 11.844,145.9 11.861,145.974 L1,145.974 C0.447,145.974 0,146.421 0,146.974 C0,147.527 0.447,147.974 1,147.974 L557.667,147.974 C558.22,147.974 558.667,147.527 558.667,146.974 C558.667,146.421 558.22,145.974 557.667,145.974 L557.667,145.974 Z" id="Fill-84" fill="#3E4C5B" mask="url(#mask-2)"></path>
                <path d="M477.551,121.665 L480.688,121.665 L480.688,117.215 L477.551,117.215 L477.551,121.665 Z M477.551,128.355 L480.688,128.355 L480.688,123.666 L477.551,123.666 L477.551,128.355 Z M477.551,134.646 L480.688,134.646 L480.688,130.355 L477.551,130.355 L477.551,134.646 Z M472.416,121.665 L475.552,121.665 L475.552,117.215 L472.416,117.215 L472.416,121.665 Z M472.416,128.355 L475.552,128.355 L475.552,123.666 L472.416,123.666 L472.416,128.355 Z M472.416,134.646 L475.552,134.646 L475.552,130.355 L472.416,130.355 L472.416,134.646 Z M481.688,115.215 L471.416,115.215 C470.863,115.215 470.416,115.662 470.416,116.215 L470.416,135.646 C470.416,136.199 470.863,136.646 471.416,136.646 L481.688,136.646 C482.241,136.646 482.688,136.199 482.688,135.646 L482.688,116.215 C482.688,115.662 482.241,115.215 481.688,115.215 L481.688,115.215 Z" id="Fill-85" fill="#3E4C5B" mask="url(#mask-2)"></path>
                <path d="M495.887,121.665 L499.023,121.665 L499.023,117.215 L495.887,117.215 L495.887,121.665 Z M495.887,128.355 L499.023,128.355 L499.023,123.666 L495.887,123.666 L495.887,128.355 Z M495.887,134.646 L499.023,134.646 L499.023,130.355 L495.887,130.355 L495.887,134.646 Z M490.751,121.665 L493.888,121.665 L493.888,117.215 L490.751,117.215 L490.751,121.665 Z M490.751,128.355 L493.888,128.355 L493.888,123.666 L490.751,123.666 L490.751,128.355 Z M490.751,134.646 L493.888,134.646 L493.888,130.355 L490.751,130.355 L490.751,134.646 Z M500.023,115.215 L489.751,115.215 C489.198,115.215 488.751,115.662 488.751,116.215 L488.751,135.646 C488.751,136.199 489.198,136.646 489.751,136.646 L500.023,136.646 C500.576,136.646 501.023,136.199 501.023,135.646 L501.023,116.215 C501.023,115.662 500.576,115.215 500.023,115.215 L500.023,115.215 Z" id="Fill-86" fill="#3E4C5B" mask="url(#mask-2)"></path>
                <path d="M514.222,121.665 L517.359,121.665 L517.359,117.215 L514.222,117.215 L514.222,121.665 Z M514.222,128.355 L517.359,128.355 L517.359,123.666 L514.222,123.666 L514.222,128.355 Z M514.222,134.646 L517.359,134.646 L517.359,130.355 L514.222,130.355 L514.222,134.646 Z M509.087,121.665 L512.223,121.665 L512.223,117.215 L509.087,117.215 L509.087,121.665 Z M509.087,128.355 L512.223,128.355 L512.223,123.666 L509.087,123.666 L509.087,128.355 Z M509.087,134.646 L512.223,134.646 L512.223,130.355 L509.087,130.355 L509.087,134.646 Z M518.359,115.215 L508.087,115.215 C507.534,115.215 507.087,115.662 507.087,116.215 L507.087,135.646 C507.087,136.199 507.534,136.646 508.087,136.646 L518.359,136.646 C518.912,136.646 519.359,136.199 519.359,135.646 L519.359,116.215 C519.359,115.662 518.912,115.215 518.359,115.215 L518.359,115.215 Z" id="Fill-87" fill="#3E4C5B" mask="url(#mask-2)"></path>
                <path d="M96.8867,56.5184 L95.5737,56.5184 C91.1717,56.5184 87.5907,60.0994 87.5907,64.5004 L87.5907,69.0914 C87.5907,69.6384 87.1517,70.0804 86.6057,70.0884 L86.6057,70.1624 L93.2447,69.9834 C93.2447,65.9984 92.1127,59.0854 96.8867,56.5184" id="Fill-88" fill="#DCE4ED" mask="url(#mask-2)"></path>
                <path d="M125.0742,65.7167 C124.4422,65.4487 123.7472,65.3007 123.0182,65.3007 L108.4472,65.3007 C108.0952,65.3007 107.7502,65.3387 107.4172,65.4047 C107.2762,65.4327 107.1462,65.4857 107.0112,65.5247 C106.8272,65.5767 106.6392,65.6227 106.4642,65.6947 C106.2822,65.7687 106.1122,65.8677 105.9402,65.9617 C105.8312,66.0217 105.7162,66.0737 105.6102,66.1407 C105.4062,66.2737 105.2162,66.4257 105.0322,66.5857 C104.9782,66.6317 104.9212,66.6727 104.8682,66.7207 C104.6622,66.9147 104.4722,67.1257 104.2992,67.3497 C104.2822,67.3717 104.2622,67.3917 104.2462,67.4137 C103.6782,68.1737 103.3062,69.0907 103.2112,70.0877 L112.1392,70.0877 C112.5072,70.0877 112.8132,70.2947 112.9872,70.5887 L128.3052,70.5887 C128.3052,68.4017 126.9712,66.5207 125.0742,65.7167" id="Fill-89" fill="#F6F9FC" mask="url(#mask-2)"></path>
                <path d="M138.4873,69.5883 L130.2283,69.5883 C129.7393,66.0423 126.6973,63.3003 123.0183,63.3003 L114.5263,63.3003 C114.4193,58.2013 110.2633,54.5183 104.5543,54.5183 L95.5733,54.5183 C90.0693,54.5183 85.5913,58.9963 85.5913,64.5003 L85.5913,68.0913 L80.6023,68.0913 C80.0493,68.0913 79.6023,68.5393 79.6023,69.0913 C79.6023,69.6433 80.0493,70.0913 80.6023,70.0913 L86.5913,70.0913 C87.1433,70.0913 87.5913,69.6433 87.5913,69.0913 L87.5913,64.5003 C87.5913,60.0993 91.1723,56.5183 95.5733,56.5183 L104.5543,56.5183 C109.1763,56.5183 112.4213,59.2983 112.5273,63.3003 L108.4473,63.3003 C104.5973,63.3003 101.4443,66.3023 101.1853,70.0873 L92.1793,70.0873 C91.6273,70.0873 91.1793,70.5353 91.1793,71.0873 C91.1793,71.6393 91.6273,72.0873 92.1793,72.0873 L112.1393,72.0873 C112.6923,72.0873 113.1393,71.6393 113.1393,71.0873 C113.1393,70.5353 112.6923,70.0873 112.1393,70.0873 L103.2113,70.0873 C103.4673,67.4093 105.7043,65.3003 108.4473,65.3003 L123.0183,65.3003 C125.9333,65.3003 128.3053,67.6723 128.3053,70.5883 C128.3053,71.1403 128.7533,71.5883 129.3053,71.5883 L138.4873,71.5883 C139.0403,71.5883 139.4873,71.1403 139.4873,70.5883 C139.4873,70.0363 139.0403,69.5883 138.4873,69.5883" id="Fill-90" fill="#3E4C5B" mask="url(#mask-2)"></path>
                <path d="M322.334,23.8339 C322.334,23.2819 322.781,22.8339 323.334,22.8339 L342.593,22.8339 C342.101,19.1699 338.963,16.3339 335.167,16.3339 L299.167,16.3339 C295.031,16.3339 291.667,19.6979 291.667,23.8339 L322.334,23.8339 Z" id="Fill-91" fill="#F6F9FC" mask="url(#mask-2)"></path>
                <path d="M252.6553,15.0004 C252.5593,10.2994 252.0223,4.8214 257.3423,2.0004 L253.0003,2.0004 C248.0373,2.0004 244.0003,6.0384 244.0003,11.0004 L244.0003,14.6674 C244.0003,14.7854 243.9703,14.8954 243.9323,15.0004 L252.6553,15.0004 Z" id="Fill-92" fill="#DCE4ED" mask="url(#mask-2)"></path>
                <path d="M373,22.8339 L344.613,22.8339 C344.112,18.0639 340.067,14.3339 335.167,14.3339 L315.667,14.3339 L315.667,11.0009 C315.667,4.9349 310.732,0.0009 304.667,0.0009 L253,0.0009 C246.935,0.0009 242,4.9349 242,11.0009 L242,14.6669 C242,14.7859 242.029,14.8949 242.067,15.0009 L231.667,15.0009 C231.114,15.0009 230.667,15.4479 230.667,16.0009 C230.667,16.5529 231.114,17.0009 231.667,17.0009 L264.667,17.0009 C265.22,17.0009 265.667,16.5529 265.667,16.0009 C265.667,15.4479 265.22,15.0009 264.667,15.0009 L243.933,15.0009 C243.971,14.8949 244,14.7859 244,14.6669 L244,11.0009 C244,6.0379 248.037,2.0009 253,2.0009 L304.667,2.0009 C309.63,2.0009 313.667,6.0379 313.667,11.0009 L313.667,14.3339 L299.167,14.3339 C294.267,14.3339 290.222,18.0639 289.721,22.8339 L284.334,22.8339 C283.781,22.8339 283.334,23.2819 283.334,23.8339 C283.334,24.3859 283.781,24.8339 284.334,24.8339 L290.667,24.8339 C291.22,24.8339 291.667,24.3859 291.667,23.8339 C291.667,19.6979 295.031,16.3339 299.167,16.3339 L335.167,16.3339 C338.963,16.3339 342.101,19.1699 342.593,22.8339 L323.334,22.8339 C322.781,22.8339 322.334,23.2819 322.334,23.8339 C322.334,24.3859 322.781,24.8339 323.334,24.8339 L373,24.8339 C373.553,24.8339 374,24.3859 374,23.8339 C374,23.2819 373.553,22.8339 373,22.8339" id="Fill-93" fill="#3E4C5B" mask="url(#mask-2)"></path>
                <path d="M425.9482,45.7533 L425.9482,52.1463 C425.9482,52.2163 425.9222,52.2783 425.9082,52.3443 L435.7002,52.3443 C435.2062,48.8203 434.2062,37.5253 440.9442,34.1013 L437.6002,34.1013 C431.1762,34.1013 425.9482,39.3283 425.9482,45.7533" id="Fill-94" fill="#DCE4ED" mask="url(#mask-2)"></path>
                <path d="M435.8701,54.3446 L415.6261,54.3446 C411.7651,54.3446 408.6351,57.4746 408.6351,61.3356 L442.8601,61.3356 C442.8601,57.4746 439.7301,54.3446 435.8701,54.3446" id="Fill-95" fill="#F6F9FC" mask="url(#mask-2)"></path>
                <path d="M496.334,51.1459 L462.973,51.1459 L462.973,45.7529 C462.973,38.2259 456.849,32.1009 449.32,32.1009 L437.601,32.1009 C430.072,32.1009 423.948,38.2259 423.948,45.7529 L423.948,52.1459 C423.948,52.2159 423.975,52.2779 423.988,52.3449 L415.626,52.3449 C410.668,52.3449 406.635,56.3779 406.635,61.3349 C406.635,61.4529 406.665,61.5629 406.702,61.6669 L398.579,61.6669 C398.026,61.6669 397.579,62.1149 397.579,62.6669 C397.579,63.2199 398.026,63.6669 398.579,63.6669 L418.556,63.6669 C419.108,63.6669 419.556,63.2199 419.556,62.6669 C419.556,62.1149 419.108,61.6669 418.556,61.6669 L408.567,61.6669 C408.605,61.5629 408.635,61.4529 408.635,61.3349 C408.635,57.4809 411.771,54.3449 415.626,54.3449 L435.869,54.3449 C439.724,54.3449 442.86,57.4809 442.86,61.3349 C442.86,61.8879 443.308,62.3349 443.86,62.3349 L460.641,62.3349 C461.193,62.3349 461.641,61.8879 461.641,61.3349 C461.641,60.7829 461.193,60.3349 460.641,60.3349 L444.802,60.3349 C444.302,55.8469 440.489,52.3449 435.869,52.3449 L425.908,52.3449 C425.922,52.2779 425.948,52.2159 425.948,52.1459 L425.948,45.7529 C425.948,39.3279 431.176,34.1009 437.601,34.1009 L449.32,34.1009 C455.745,34.1009 460.973,39.3279 460.973,45.7529 L460.973,52.1459 C460.973,52.6979 461.42,53.1459 461.973,53.1459 L496.334,53.1459 C496.887,53.1459 497.334,52.6979 497.334,52.1459 C497.334,51.5939 496.887,51.1459 496.334,51.1459" id="Fill-96" fill="#3E4C5B" mask="url(#mask-2)"></path>
            </g>
        </g>
    </g>
</svg>