<?xml version="1.0" encoding="utf-8"?>
<!-- Generator: Adobe Illustrator 22.0.0, SVG Export Plug-In . SVG Version: 6.00 Build 0)  -->
<svg version="1.1" id="Layer_1" xmlns="http://www.w3.org/2000/svg" xmlns:xlink="http://www.w3.org/1999/xlink" x="0px" y="0px"
	 width="155px" height="155px" viewBox="0 0 155 155" style="enable-background:new 0 0 155 155;" xml:space="preserve">
<style type="text/css">
	.st0{fill:#DCE4ED;}
	.st1{fill:#3E4C5B;}
	.st2{fill:none;stroke:#DCE4ED;stroke-width:6;stroke-linecap:round;stroke-linejoin:round;stroke-miterlimit:10;}
	.st3{fill:none;stroke:#DCE4ED;stroke-width:5;stroke-linecap:round;stroke-miterlimit:10;}
</style>
<title>NoContent_Chart</title>
<desc>Created with Sketch.</desc>
<path class="st0" d="M117.9,14.1c0.6,0,1.2-0.2,1.6-0.5c-0.9-0.4-2.2-1-2.9-2.2c-0.8-1.4-0.5-2.8-0.2-3.7c-1.2,0.5-2,1.7-2,3
	C114.6,12.6,116.1,14.1,117.9,14.1z"/>
<path class="st0" d="M149.2,56.3c-0.5,1.5-1.5,2.3-2.3,2.7c0.4,0.2,0.8,0.2,1.2,0.2c1.8,0,3.3-1.5,3.3-3.3c0-1.6-1.2-3-2.7-3.3
	C149.2,53.5,149.7,55,149.2,56.3z"/>
<path class="st0" d="M135.9,138.9c0.7,0,1.3-0.2,1.9-0.6c-0.9-0.3-2.5-1-3.2-2.4c-0.7-1.2-0.6-2.4-0.3-3.3c-1,0.6-1.7,1.6-1.7,2.9
	C132.6,137.4,134.1,138.9,135.9,138.9z"/>
<path class="st0" d="M19.2,128c0-1.7-1.3-3.1-2.9-3.3c0.4,0.9,1,2.5,0.5,3.9c-0.4,1.4-1.3,2.1-2,2.5c0.3,0.1,0.7,0.2,1.1,0.2
	C17.7,131.3,19.2,129.8,19.2,128z"/>
<path class="st1" d="M146,44.6c-4.1,0-7.5-3.4-7.5-7.5c0-4.1,3.4-7.5,7.5-7.5c4.1,0,7.5,3.4,7.5,7.5C153.5,41.3,150.2,44.6,146,44.6
	z M146,31.6c-3,0-5.5,2.5-5.5,5.5c0,3,2.5,5.5,5.5,5.5c3,0,5.5-2.5,5.5-5.5C151.5,34.1,149,31.6,146,31.6z M146,40.3
	c-1.8,0-3.2-1.4-3.2-3.2c0-1.8,1.4-3.2,3.2-3.2c1.8,0,3.2,1.4,3.2,3.2C149.2,38.9,147.8,40.3,146,40.3z M146,35.9
	c-0.7,0-1.2,0.5-1.2,1.2c0,0.6,0.5,1.2,1.2,1.2c0.6,0,1.2-0.5,1.2-1.2C147.2,36.5,146.7,35.9,146,35.9z"/>
<path class="st1" d="M22.3,148.1c-1.7,0-3.1-1.4-3.1-3.2c0-1.8,1.4-3.2,3.1-3.2c1.7,0,3.1,1.4,3.1,3.2
	C25.4,146.7,24,148.1,22.3,148.1z M22.3,143.8c-0.6,0-1.1,0.5-1.1,1.2c0,0.6,0.5,1.2,1.1,1.2c0.6,0,1.1-0.5,1.1-1.2
	C23.4,144.3,22.9,143.8,22.3,143.8z"/>
<path class="st1" d="M22.3,152.4c-4.1,0-7.4-3.4-7.4-7.5c0-4.1,3.3-7.5,7.4-7.5c4.1,0,7.4,3.4,7.4,7.5
	C29.7,149.1,26.4,152.4,22.3,152.4z M22.3,139.5c-3,0-5.4,2.5-5.4,5.5c0,3,2.4,5.5,5.4,5.5c3,0,5.4-2.5,5.4-5.5
	C27.7,141.9,25.3,139.5,22.3,139.5z"/>
<path class="st1" d="M20.2,25.1c-4.1,0-7.5-3.4-7.5-7.5c0-4.1,3.4-7.5,7.5-7.5c4.1,0,7.5,3.4,7.5,7.5C27.7,21.8,24.3,25.1,20.2,25.1
	z M20.2,12.2c-3,0-5.5,2.5-5.5,5.5c0,3,2.5,5.5,5.5,5.5c3,0,5.5-2.5,5.5-5.5C25.7,14.6,23.2,12.2,20.2,12.2z M20.2,20.8
	c-1.8,0-3.2-1.4-3.2-3.2c0-1.8,1.4-3.2,3.2-3.2s3.2,1.4,3.2,3.2C23.4,19.4,21.9,20.8,20.2,20.8z M20.2,16.5c-0.6,0-1.2,0.5-1.2,1.2
	c0,0.6,0.5,1.2,1.2,1.2c0.6,0,1.2-0.5,1.2-1.2C21.4,17,20.8,16.5,20.2,16.5z"/>
<path class="st0" d="M90.6,41.3c0.3,0.1,0.6,0.1,0.9,0c0.3-0.1,0.5-0.4,0.6-0.7c0.2-0.6-0.1-1.3-0.7-1.5c-4.8-1.7-9.9-2.6-15-2.6
	c-4.6,0-8.9,0.7-13.1,2c-0.1,0.4-0.1,0.7,0,1.1c0,0,0,0,0,0c0.1,0.4,0.4,0.8,0.7,1c3.9-1.2,8.1-1.9,12.4-1.9
	C81.3,38.9,86,39.7,90.6,41.3z"/>
<path class="st0" d="M73.1,123.5c-8.2-0.6-16-3.6-22.6-8.7c-0.2-0.2-0.5-0.2-0.7-0.2c-0.3,0-0.7,0.2-0.9,0.4
	c-0.4,0.5-0.3,1.2,0.2,1.6c6.7,5.2,14.6,8.3,23,9.1C72.9,125.3,73.3,124.4,73.1,123.5z"/>
<path class="st0" d="M16.6,106.2C16.6,106.2,16.6,106.2,16.6,106.2c0.1-0.1,0.2-0.1,0.2-0.2c-3.2-7.6-4.9-16-4.9-24.7
	c0-2.5,0.1-5.1,0.4-7.5c0.1-0.6-0.4-1.2-1-1.3c-0.1,0-0.1,0-0.2,0c-0.2,0-0.5,0.1-0.7,0.2c-0.2,0.2-0.4,0.5-0.4,0.8
	c-0.3,2.6-0.5,5.2-0.5,7.8c0,8.8,1.7,17.3,4.9,25C15.1,106.6,15.9,106.6,16.6,106.2z"/>
<path class="st0" d="M141.7,71.8C141.7,71.8,141.7,71.8,141.7,71.8c-0.6,0.1-1.1,0.4-1.4,0.8c0.4,2.9,0.6,5.8,0.6,8.8
	c0,16.3-6.1,31.8-17.1,43.8c-0.4,0.5-0.4,1.2,0.1,1.6c0.3,0.3,0.6,0.3,0.8,0.3c0.3,0,0.6-0.1,0.8-0.4c11.4-12.4,17.7-28.5,17.7-45.4
	c0-3.2-0.2-6.4-0.7-9.5C142.3,71.8,142,71.7,141.7,71.8z"/>
<path class="st2" d="M16.5,66.1"/>
<path class="st3" d="M110.5,147.1"/>
<path class="st1" d="M40.4,114.2c-4.9,0-8.9-4-8.9-8.9s4-8.9,8.9-8.9c4.9,0,8.9,4,8.9,8.9S45.3,114.2,40.4,114.2z M40.4,98.3
	c-3.8,0-6.9,3.1-6.9,6.9s3.1,6.9,6.9,6.9c3.8,0,6.9-3.1,6.9-6.9S44.2,98.3,40.4,98.3z M40.4,109.9c-2.6,0-4.6-2.1-4.6-4.6
	s2.1-4.6,4.6-4.6c2.6,0,4.6,2.1,4.6,4.6S42.9,109.9,40.4,109.9z M40.4,102.6c-1.5,0-2.6,1.2-2.6,2.6s1.2,2.6,2.6,2.6
	c1.5,0,2.6-1.2,2.6-2.6S41.8,102.6,40.4,102.6z"/>
<g>
	<path class="st0" d="M16.5,67c1,0,2-0.1,2.9-0.3c0-0.2,0.1-0.4,0.1-0.6c0-0.6-0.2-1.2-0.5-1.7c-0.8,0.2-1.6,0.3-2.5,0.3
		c-5.9,0-10.7-4.8-10.7-10.8c0-2.8,1.1-5.4,2.8-7.3c-0.3-0.5-0.7-1-1.2-1.3c-0.2-0.1-0.4-0.2-0.5-0.2c-2.1,2.3-3.4,5.4-3.4,8.8
		C3.5,61.1,9.4,67,16.5,67z"/>
</g>
<path class="st1" d="M16.5,64.7c-5.9,0-10.7-4.8-10.7-10.8c0-5.9,4.8-10.8,10.7-10.8c5.9,0,10.7,4.8,10.7,10.8
	C27.3,59.8,22.4,64.7,16.5,64.7z M16.5,45.1c-4.8,0-8.7,3.9-8.7,8.8c0,4.8,3.9,8.8,8.7,8.8c4.8,0,8.7-3.9,8.7-8.8
	C25.3,49,21.3,45.1,16.5,45.1z"/>
<path class="st1" d="M16.5,69c-8.3,0-15-6.8-15-15.1c0-8.3,6.7-15.1,15-15.1c8.3,0,15,6.8,15,15.1C31.6,62.2,24.8,69,16.5,69z
	 M16.5,40.8c-7.2,0-13,5.9-13,13.1c0,7.2,5.8,13.1,13,13.1c7.2,0,13-5.9,13-13.1C29.6,46.6,23.7,40.8,16.5,40.8z"/>
<path class="st1" d="M124.7,129c-0.8,0-1.6-0.3-2.1-0.8c-1.3-1.2-1.4-3.2-0.2-4.5c10.7-11.6,16.5-26.6,16.5-42.4
	c0-34.5-28-62.7-62.5-62.7c-17.3,0-34,7.3-45.8,20c-0.6,0.6-1.4,1-2.2,1c-0.8,0-1.6-0.3-2.3-0.8c-1.3-1.2-1.3-3.2-0.2-4.5
	c13-14,31.4-22.1,50.4-22.1c37.9,0,68.8,30.9,68.8,69c0,17.4-6.5,34-18.2,46.7C126.4,128.7,125.6,129,124.7,129z M76.4,16.6
	c35.6,0,64.5,29,64.5,64.7c0,16.3-6.1,31.8-17.1,43.8c-0.4,0.5-0.4,1.2,0.1,1.6c0.3,0.3,0.6,0.3,0.8,0.3c0.3,0,0.6-0.1,0.8-0.4
	c11.4-12.4,17.7-28.5,17.7-45.4c0-36.9-30-67-66.8-67c-18.5,0-36.4,7.8-49,21.4c-0.4,0.5-0.4,1.2,0.1,1.6c0.2,0.2,0.5,0.3,0.8,0.3
	c0.3,0,0.6-0.1,0.8-0.4C41.3,24.2,58.6,16.6,76.4,16.6z"/>
<path class="st0" d="M112.6,145.6c-0.7,0.2-1.4,0.3-2.1,0.3c-4.6,0-8.4-3.8-8.4-8.4c0-4.6,3.8-8.4,8.4-8.4c0.7,0,1.4,0.1,2.1,0.3
	c0.3-0.4,0.4-0.9,0.4-1.4c0-0.3-0.1-0.7-0.2-1c-0.7-0.2-1.5-0.3-2.3-0.3c-5.9,0-10.7,4.8-10.7,10.7s4.8,10.7,10.7,10.7
	c0.8,0,1.6-0.1,2.3-0.3c0.1-0.3,0.2-0.6,0.2-1C113,146.5,112.8,146,112.6,145.6z"/>
<path class="st1" d="M110.5,145.9c-4.6,0-8.4-3.8-8.4-8.4c0-4.6,3.8-8.4,8.4-8.4s8.4,3.8,8.4,8.4
	C118.9,142.2,115.1,145.9,110.5,145.9z M110.5,131.2c-3.5,0-6.4,2.9-6.4,6.4s2.9,6.4,6.4,6.4s6.4-2.9,6.4-6.4S114,131.2,110.5,131.2
	z"/>
<path class="st1" d="M110.5,150.3c-7,0-12.7-5.7-12.7-12.7s5.7-12.7,12.7-12.7s12.7,5.7,12.7,12.7S117.5,150.3,110.5,150.3z
	 M110.5,126.8c-5.9,0-10.7,4.8-10.7,10.7s4.8,10.7,10.7,10.7s10.7-4.8,10.7-10.7S116.4,126.8,110.5,126.8z"/>
<path class="st1" d="M135.9,140.9c-2.9,0-5.3-2.4-5.3-5.3c0-2.9,2.4-5.3,5.3-5.3c2.9,0,5.3,2.4,5.3,5.3
	C141.2,138.5,138.9,140.9,135.9,140.9z M135.9,132.2c-1.8,0-3.3,1.5-3.3,3.3c0,1.8,1.5,3.3,3.3,3.3c1.8,0,3.3-1.5,3.3-3.3
	C139.2,133.7,137.8,132.2,135.9,132.2z"/>
<path class="st1" d="M148.2,61.2c-2.9,0-5.3-2.4-5.3-5.3c0-2.9,2.4-5.3,5.3-5.3c2.9,0,5.3,2.4,5.3,5.3
	C153.5,58.8,151.1,61.2,148.2,61.2z M148.2,52.5c-1.8,0-3.3,1.5-3.3,3.3s1.5,3.3,3.3,3.3c1.8,0,3.3-1.5,3.3-3.3S150,52.5,148.2,52.5
	z"/>
<path class="st1" d="M117.9,16.1c-2.9,0-5.3-2.4-5.3-5.3c0-2.9,2.4-5.3,5.3-5.3s5.3,2.4,5.3,5.3C123.2,13.7,120.8,16.1,117.9,16.1z
	 M117.9,7.5c-1.8,0-3.3,1.5-3.3,3.3s1.5,3.3,3.3,3.3s3.3-1.5,3.3-3.3S119.7,7.5,117.9,7.5z"/>
<path class="st1" d="M76.4,150.3c-37.9,0-68.8-30.9-68.8-69c0-2.7,0.2-5.4,0.5-8c0.1-0.9,0.5-1.6,1.2-2.1c0.7-0.5,1.5-0.7,2.3-0.6
	c1.7,0.2,2.9,1.8,2.7,3.5c-0.3,2.4-0.4,4.8-0.4,7.3c0,34.5,28,62.6,62.5,62.6c5.6,0,11.3-0.8,16.9-2.3c0,0,0,0,0,0
	c0.8-0.2,1.7-0.1,2.4,0.3c0.7,0.4,1.3,1.1,1.5,1.9c0.2,0.8,0.1,1.7-0.3,2.4c-0.4,0.7-1.1,1.3-1.9,1.5
	C88.9,149.4,82.6,150.3,76.4,150.3z M11.2,72.5c-0.2,0-0.5,0.1-0.7,0.2c-0.2,0.2-0.4,0.5-0.4,0.8c-0.3,2.6-0.5,5.2-0.5,7.8
	c0,36.9,30,67,66.8,67c6,0,12.1-0.8,18-2.4c0.3-0.1,0.5-0.3,0.7-0.5c0.2-0.3,0.2-0.6,0.1-0.9c-0.1-0.3-0.3-0.6-0.5-0.7
	c-0.3-0.2-0.6-0.2-0.9-0.1l0,0c-5.7,1.6-11.6,2.4-17.4,2.4c-35.6,0-64.5-29-64.5-64.6c0-2.5,0.1-5.1,0.4-7.5c0.1-0.6-0.4-1.2-1-1.3
	C11.3,72.5,11.3,72.5,11.2,72.5z"/>
<path class="st1" d="M15.9,133.3c-2.9,0-5.3-2.4-5.3-5.3c0-2.9,2.4-5.3,5.3-5.3c2.9,0,5.3,2.4,5.3,5.3
	C21.2,130.9,18.8,133.3,15.9,133.3z M15.9,124.7c-1.8,0-3.3,1.5-3.3,3.3c0,1.8,1.5,3.3,3.3,3.3c1.8,0,3.3-1.5,3.3-3.3
	C19.2,126.2,17.7,124.7,15.9,124.7z"/>
<g>
	<path class="st0" d="M96.5,49c0,4.8,3.9,8.7,8.7,8.7c3.6,0,6.6-2.1,8-5.2c-0.1-0.2-0.3-0.5-0.5-0.6c-0.4-0.4-0.9-0.6-1.4-0.7
		c-0.9,2.5-3.3,4.3-6.1,4.3c-3.5,0-6.4-2.9-6.4-6.4c0-2.6,1.5-4.8,3.7-5.8c-0.2-0.5-0.4-1-0.9-1.3c-0.2-0.2-0.4-0.3-0.7-0.4
		C98.3,42.9,96.5,45.8,96.5,49z"/>
</g>
<path class="st0" d="M90.9,60.5c-0.6,0-1,0.7-1,1v34.2c0,0.5,0.5,1,1,1H93V60.5H90.9z"/>
<path class="st0" d="M49,76c-0.6,0-1,0.7-1,1v18.7c0,0.5,0.5,1,1,1h2.5V76H49z"/>
<path class="st0" d="M63,65.5c-0.6,0-1,0.7-1,1v29.2c0,0.5,0.5,1,1,1h2.1V65.5H63z"/>
<path class="st0" d="M76.9,71.3c-0.6,0-1,0.7-1,1v23.5c0,0.5,0.5,1,1,1H79V71.3H76.9z"/>
<path class="st1" d="M55.7,98.7H49c-1.6,0-3-1.4-3-3V77c0-1.4,1.3-3,3-3h6.8c1.6,0,3,1.4,3,3v18.7C58.8,97.3,57.3,98.7,55.7,98.7z
	 M49,76c-0.6,0-1,0.7-1,1v18.7c0,0.5,0.5,1,1,1h6.8c0.5,0,1-0.5,1-1V77c0-0.5-0.5-1-1-1H49z"/>
<path class="st1" d="M69.7,98.7H63c-1.6,0-3-1.4-3-3V66.5c0-1.4,1.3-3,3-3h6.8c1.6,0,3,1.4,3,3v29.2C72.7,97.3,71.3,98.7,69.7,98.7z
	 M63,65.5c-0.6,0-1,0.7-1,1v29.2c0,0.5,0.5,1,1,1h6.8c0.5,0,1-0.5,1-1V66.5c0-0.5-0.5-1-1-1H63z"/>
<path class="st1" d="M83.7,98.7h-6.8c-1.6,0-3-1.4-3-3V72.3c0-1.4,1.3-2.9,3-3h6.8c1.6,0,3,1.4,3,3v23.5
	C86.7,97.3,85.3,98.7,83.7,98.7z M76.9,71.3c-0.6,0-1,0.7-1,1v23.5c0,0.5,0.5,1,1,1h6.8c0.5,0,1-0.5,1-1V72.3c0-0.5-0.5-1-1-1H76.9z
	"/>
<path class="st1" d="M97.7,98.7h-6.8c-1.6,0-3-1.4-3-3V61.5c0-1.4,1.3-3,3-3h6.8c1.6,0,3,1.4,3,3v34.3
	C100.7,97.3,99.3,98.7,97.7,98.7z M90.9,60.5c-0.6,0-1,0.7-1,1v34.2c0,0.5,0.5,1,1,1h6.8c0.5,0,1-0.5,1-1V61.5c0-0.5-0.5-1-1-1H90.9
	z"/>
<path class="st1" d="M105.3,55.4c-3.5,0-6.4-2.9-6.4-6.4c0-3.5,2.9-6.4,6.4-6.4c3.5,0,6.4,2.9,6.4,6.4
	C111.7,52.6,108.8,55.4,105.3,55.4z M105.3,44.6c-2.4,0-4.4,2-4.4,4.4c0,2.4,2,4.4,4.4,4.4c2.4,0,4.4-2,4.4-4.4
	C109.7,46.6,107.7,44.6,105.3,44.6z"/>
<path class="st1" d="M105.3,59.8c-5.9,0-10.7-4.8-10.7-10.7c0-5.9,4.8-10.7,10.7-10.7c5.9,0,10.7,4.8,10.7,10.7
	C116,54.9,111.2,59.8,105.3,59.8z M105.3,40.3c-4.8,0-8.7,3.9-8.7,8.7s3.9,8.7,8.7,8.7c4.8,0,8.7-3.9,8.7-8.7S110.1,40.3,105.3,40.3
	z"/>
<path class="st1" d="M76.4,128c-10.4,0-20.3-3.4-28.5-9.7c-1.4-1.1-1.6-3.1-0.6-4.4c1.1-1.4,3.1-1.6,4.4-0.6
	c7.1,5.5,15.6,8.4,24.7,8.4c22.2,0,40.3-18.1,40.3-40.4c0-6.4-1.5-12.6-4.3-18.3c-0.8-1.5-0.2-3.5,1.4-4.2c0.7-0.4,1.6-0.5,2.4-0.2
	c0.8,0.3,1.5,0.8,1.8,1.6c3.3,6.6,5,13.7,5,21.1C123,107,102.1,128,76.4,128z M49.8,114.6c-0.3,0-0.7,0.2-0.9,0.4
	c-0.4,0.5-0.3,1.2,0.2,1.6c7.9,6.1,17.3,9.3,27.3,9.3c24.6,0,44.6-20,44.6-44.7c0-7.1-1.6-13.9-4.8-20.2c-0.1-0.3-0.4-0.5-0.7-0.6
	c-0.3-0.1-0.6-0.1-0.9,0.1c-0.6,0.3-0.8,1-0.5,1.6c3,6,4.6,12.4,4.6,19.2c0,23.4-19,42.4-42.3,42.4c-9.5,0-18.4-3.1-25.9-8.8
	C50.3,114.7,50.1,114.6,49.8,114.6z"/>
<path class="st1" d="M34.5,95.8c-1.4,0-2.7-1-3-2.3c-1.1-3.9-1.6-8-1.6-12.2c0-25.8,20.9-46.7,46.6-46.7c5.3,0,10.6,0.9,15.6,2.7
	c1.6,0.6,2.5,2.4,1.9,4c-0.3,0.8-0.9,1.4-1.6,1.8c-0.8,0.4-1.6,0.4-2.4,0.1c-4.4-1.5-8.9-2.3-13.5-2.3c-22.2,0-40.3,18.1-40.3,40.4
	c0,3.6,0.5,7.2,1.4,10.6c0.5,1.7-0.5,3.4-2.2,3.9C35,95.8,34.7,95.8,34.5,95.8z M76.4,36.6c-24.6,0-44.6,20.1-44.6,44.7
	c0,4,0.5,7.9,1.5,11.7c0.2,0.6,0.8,1,1.4,0.8c0.6-0.2,1-0.8,0.8-1.4c-1-3.6-1.5-7.3-1.5-11.1c0-23.4,19-42.4,42.3-42.4
	c4.8,0,9.6,0.8,14.2,2.4c0.3,0.1,0.6,0.1,0.9,0c0.3-0.1,0.5-0.4,0.6-0.7c0.2-0.6-0.1-1.3-0.7-1.5l0,0C86.5,37.4,81.5,36.6,76.4,36.6
	z"/>
</svg>
