<?xml version="1.0" encoding="utf-8"?>
<!-- Generator: Adobe Illustrator 22.0.0, SVG Export Plug-In . SVG Version: 6.00 Build 0)  -->
<svg width="205px" height="205px" version="1.1" id="Layer_1" xmlns="http://www.w3.org/2000/svg" xmlns:xlink="http://www.w3.org/1999/xlink" x="0px" y="0px"
	 viewBox="0 0 205 205" style="enable-background:new 0 0 205 205;" xml:space="preserve">
<style type="text/css">
	.st0{fill:#DCE4ED;}
	.st1{fill:#3E4C5B;}
	.st2{fill:none;stroke:#DCE4ED;stroke-width:6;stroke-linecap:round;stroke-linejoin:round;stroke-miterlimit:10;}
	.st3{fill:none;stroke:#DCE4ED;stroke-width:5;stroke-linecap:round;stroke-miterlimit:10;}
</style>
<title>NoContent_Chart</title>
<desc>Created with Sketch.</desc>
<path class="st0" d="M118.5,80.7c-1,0-1.7,1.1-1.7,1.7V128c0,0.8,0.8,1.6,1.7,1.6h2.8v-49H118.5z"/>
<path class="st0" d="M66.1,101.3c-0.9,0-1.7,1-1.7,1.7v24.9c0,0.8,0.8,1.7,1.7,1.7h3.3v-28.3H66.1z"/>
<path class="st0" d="M83.4,87.4c-0.9,0-1.7,1-1.7,1.7V128c0,0.8,0.8,1.7,1.7,1.7h2.8V87.4H83.4z"/>
<path class="st0" d="M101.2,95.1c-1,0-1.7,1.1-1.7,1.6V128c0,0.8,0.8,1.6,1.7,1.6h2.8V95.1H101.2z"/>
<path class="st0" d="M156.7,19.5c1,0,1.9-0.3,2.6-0.8c-1.3-0.4-3.3-1.3-4.2-3.1c-1.2-2.1-0.6-4.2,0-5.3c-1.8,0.7-3.1,2.4-3.1,4.5
	C151.9,17.4,154,19.5,156.7,19.5z"/>
<path class="st0" d="M198.5,75.4c-0.7,2.3-2.3,3.3-3.5,3.7c0.6,0.3,1.3,0.5,2.1,0.5c2.6,0,4.8-2.1,4.8-4.8c0-2.4-1.8-4.3-4.1-4.7
	C198.3,71.4,199.1,73.5,198.5,75.4z"/>
<path class="st0" d="M180.7,185.9c1.1,0,2.1-0.4,2.9-1c-1.2-0.4-3.6-1.2-4.6-3.3c-1-1.9-0.7-3.6-0.2-4.8c-1.6,0.8-2.8,2.4-2.8,4.3
	C175.9,183.7,178.1,185.9,180.7,185.9z"/>
<path class="st0" d="M25.4,171c0-2.5-1.9-4.5-4.3-4.7c0.6,1.2,1.5,3.4,0.8,5.5c-0.7,2.1-2,3.1-3.1,3.6c0.6,0.2,1.2,0.4,1.9,0.4
	C23.2,175.8,25.4,173.6,25.4,171z"/>
<path class="st1" d="M194.2,59.5c-5.3,0-9.7-4.3-9.7-9.7c0-5.3,4.3-9.7,9.7-9.7c5.3,0,9.7,4.3,9.7,9.7
	C203.8,55.2,199.5,59.5,194.2,59.5z M194.2,42.2c-4.2,0-7.7,3.4-7.7,7.7c0,4.2,3.4,7.7,7.7,7.7c4.2,0,7.7-3.4,7.7-7.7
	C201.8,45.6,198.4,42.2,194.2,42.2z M194.2,53.7c-2.2,0-3.9-1.7-3.9-3.9c0-2.2,1.8-3.9,3.9-3.9c2.1,0,3.9,1.8,3.9,3.9
	C198.1,52,196.3,53.7,194.2,53.7z M194.2,47.9c-1.1,0-1.9,0.9-1.9,1.9c0,1,0.9,1.9,1.9,1.9c1,0,1.9-0.9,1.9-1.9
	C196.1,48.8,195.2,47.9,194.2,47.9z"/>
<path class="st1" d="M29.2,197.5c-2.1,0-3.9-1.7-3.9-3.9c0-2.2,1.7-3.9,3.9-3.9c2.1,0,3.9,1.8,3.9,3.9
	C33,195.8,31.3,197.5,29.2,197.5z M29.2,191.7c-1,0-1.9,0.9-1.9,1.9c0,1,0.8,1.9,1.9,1.9c1,0,1.9-0.8,1.9-1.9
	C31,192.6,30.2,191.7,29.2,191.7z"/>
<path class="st1" d="M29.2,203.3c-5.3,0-9.5-4.3-9.5-9.6c0-5.3,4.3-9.6,9.5-9.6c5.3,0,9.5,4.3,9.5,9.6
	C38.7,198.9,34.4,203.3,29.2,203.3z M29.2,186c-4.2,0-7.5,3.4-7.5,7.6c0,4.2,3.4,7.6,7.5,7.6c4.1,0,7.5-3.4,7.5-7.6
	C36.7,189.4,33.3,186,29.2,186z"/>
<path class="st1" d="M26.4,33.5c-5.3,0-9.7-4.3-9.7-9.7c0-5.3,4.3-9.7,9.7-9.7s9.7,4.3,9.7,9.7C36,29.2,31.7,33.5,26.4,33.5z
	 M26.4,16.2c-4.2,0-7.7,3.4-7.7,7.7c0,4.2,3.4,7.7,7.7,7.7c4.2,0,7.7-3.4,7.7-7.7C34,19.7,30.6,16.2,26.4,16.2z M26.4,27.8
	c-2.2,0-3.9-1.7-3.9-3.9c0-2.2,1.8-3.9,3.9-3.9s3.9,1.8,3.9,3.9C30.3,26,28.5,27.8,26.4,27.8z M26.4,22c-1,0-1.9,0.9-1.9,1.9
	c0,1,0.9,1.9,1.9,1.9s1.9-0.9,1.9-1.9C28.3,22.8,27.4,22,26.4,22z"/>
<path class="st0" d="M120.2,55.8c0.5,0.2,1,0.1,1.4-0.1c0.4-0.2,0.8-0.6,1-1.1c0.3-1-0.2-2.1-1.1-2.4v0c-6.5-2.3-13.2-3.5-20.1-3.5
	c-6,0-11.8,0.9-17.3,2.6c-0.2,0.6-0.3,1.2-0.1,1.9c0,0,0,0,0,0.1c0.2,0.7,0.7,1.3,1.3,1.6c5.1-1.5,10.5-2.4,16.1-2.4
	C107.8,52.5,114.1,53.6,120.2,55.8z"/>
<path class="st0" d="M96.8,164.7c-10.9-0.9-21.1-4.8-29.8-11.5c-0.3-0.3-0.7-0.4-1.1-0.4c-0.6,0-1.1,0.3-1.5,0.7
	c-0.6,0.8-0.5,2,0.3,2.6c8.9,6.9,19.2,11,30.3,12.2c0.1,0,0.1,0,0.1,0C96.7,167.7,97.3,166,96.8,164.7z"/>
<path class="st0" d="M21.6,142C21.6,141.9,21.7,141.9,21.6,142c0.3-0.2,0.4-0.3,0.6-0.5c-4.2-10.1-6.5-21.1-6.5-32.7
	c0-3.4,0.2-6.7,0.6-10c0.1-1-0.6-2-1.6-2.1c-0.1,0-0.2,0-0.3,0c-0.4,0-0.8,0.1-1.1,0.4c-0.4,0.3-0.7,0.8-0.7,1.3
	c-0.4,3.4-0.6,6.9-0.6,10.4c0,11.7,2.2,22.8,6.3,33C19.2,142.5,20.5,142.7,21.6,142z"/>
<path class="st0" d="M188.4,96.1C188.4,96.1,188.4,96.1,188.4,96.1c-1,0.1-1.7,0.7-2.2,1.4c0.5,3.7,0.8,7.5,0.8,11.3
	c0,21.6-8.1,42.3-22.7,58.2c-0.7,0.8-0.7,2,0.1,2.7c0.4,0.4,0.9,0.5,1.3,0.5c0.5,0,1-0.2,1.4-0.6c15.3-16.6,23.7-38.1,23.7-60.7
	c0-4.2-0.3-8.4-0.9-12.5C189.4,96.1,188.9,96,188.4,96.1z"/>
<path class="st2" d="M21.5,88.4"/>
<path class="st3" d="M146.8,196.4"/>
<path class="st1" d="M53.3,152.3c-6.4,0-11.6-5.2-11.6-11.6c0-6.4,5.2-11.6,11.6-11.6c6.4,0,11.6,5.2,11.6,11.6
	C64.9,147.1,59.7,152.3,53.3,152.3z M53.3,131.1c-5.3,0-9.6,4.3-9.6,9.6c0,5.3,4.3,9.6,9.6,9.6c5.3,0,9.6-4.3,9.6-9.6
	C62.9,135.4,58.6,131.1,53.3,131.1z M53.3,146.5c-3.2,0-5.8-2.6-5.8-5.8s2.6-5.8,5.8-5.8c3.2,0,5.8,2.6,5.8,5.8
	S56.5,146.5,53.3,146.5z M53.3,136.9c-2.1,0-3.8,1.7-3.8,3.8s1.7,3.8,3.8,3.8c2.1,0,3.8-1.7,3.8-3.8S55.4,136.9,53.3,136.9z"/>
<path class="st0" d="M21.5,90c0.9,0,1.8-0.1,2.7-0.2c0.2-0.4,0.3-0.9,0.3-1.4c0-1-0.5-1.8-1.1-2.3c-0.6,0.1-1.2,0.1-1.9,0.1
	c-7.7,0-14-6.3-14-14c0-3.2,1.1-6.1,2.8-8.4c-0.1-0.9-0.7-1.7-1.5-2.1c-0.4-0.2-0.9-0.3-1.3-0.4c-2.3,3-3.7,6.8-3.7,10.9
	C3.8,82,11.8,90,21.5,90z"/>
<path class="st1" d="M21.5,86.2c-7.7,0-14-6.3-14-14c0-7.7,6.3-14,14-14c7.7,0,14,6.3,14,14C35.5,79.9,29.2,86.2,21.5,86.2z
	 M21.5,60.1c-6.6,0-12,5.4-12,12c0,6.6,5.4,12,12,12c6.6,0,12-5.4,12-12C33.5,65.6,28.1,60.1,21.5,60.1z"/>
<path class="st1" d="M21.5,92C10.6,92,1.8,83.1,1.8,72.2c0-10.9,8.8-19.8,19.7-19.8c10.9,0,19.7,8.9,19.7,19.8
	C41.2,83.1,32.4,92,21.5,92z M21.5,54.4c-9.8,0-17.7,8-17.7,17.8C3.8,82,11.8,90,21.5,90c9.8,0,17.7-8,17.7-17.8
	C39.2,62.4,31.3,54.4,21.5,54.4z"/>
<path class="st1" d="M165.7,172.1c-1,0-1.9-0.4-2.6-1c-1.6-1.5-1.7-3.9-0.2-5.5c14.3-15.5,22.1-35.7,22.1-56.8
	c0-46.2-37.5-83.9-83.6-83.9c-23.2,0-45.5,9.8-61.3,26.8c-0.7,0.8-1.7,1.2-2.7,1.2c-1,0-2-0.3-2.8-1c-1.6-1.5-1.7-3.9-0.2-5.5
	c17.3-18.6,41.7-29.3,67-29.3c50.4,0,91.4,41.1,91.4,91.6c0,23.1-8.6,45.1-24.2,62.1C167.8,171.6,166.8,172.1,165.7,172.1z
	 M101.4,22.9c47.2,0,85.6,38.5,85.6,85.9c0,21.6-8.1,42.3-22.7,58.2c-0.7,0.8-0.7,2,0.1,2.7c0.4,0.4,0.9,0.5,1.3,0.5
	c0.5,0,1-0.2,1.4-0.6c15.3-16.6,23.7-38.1,23.7-60.7c0-49.4-40.1-89.6-89.4-89.6c-24.8,0-48.7,10.4-65.5,28.7
	c-0.7,0.8-0.7,2,0.1,2.7c0.4,0.3,0.8,0.5,1.3,0.5c0.5,0,1-0.2,1.3-0.6C54.7,32.9,77.6,22.9,101.4,22.9z"/>
<path class="st1" d="M101.4,200.4C51,200.4,10,159.3,10,108.7c0-3.5,0.2-7.1,0.6-10.6c0.1-1.1,0.6-2,1.5-2.6
	c0.8-0.6,1.8-0.9,2.8-0.8c2.1,0.3,3.6,2.2,3.4,4.3c-0.4,3.2-0.6,6.4-0.6,9.7c0,46.2,37.5,83.9,83.6,83.9c7.5,0,15.1-1,22.6-3.1h0
	c1-0.3,2-0.1,2.9,0.4c0.9,0.5,1.5,1.3,1.8,2.3c0.6,2.1-0.7,4.2-2.7,4.8C117.9,199.2,109.6,200.4,101.4,200.4z M14.4,96.7
	c-0.4,0-0.8,0.1-1.1,0.4c-0.4,0.3-0.7,0.8-0.7,1.3c-0.4,3.4-0.6,6.9-0.6,10.4c0,49.4,40.1,89.6,89.4,89.6c8,0,16.1-1.1,24.1-3.3
	c1-0.3,1.6-1.3,1.3-2.3c-0.1-0.5-0.4-0.9-0.9-1.1c-0.4-0.2-0.9-0.3-1.4-0.2c-7.6,2.1-15.4,3.1-23.1,3.1c-47.2,0-85.6-38.5-85.6-85.9
	c0-3.4,0.2-6.7,0.6-10c0.1-1-0.6-2-1.6-2.1C14.6,96.7,14.5,96.7,14.4,96.7z"/>
<path class="st1" d="M20.6,177.8c-3.7,0-6.8-3-6.8-6.8s3-6.8,6.8-6.8s6.8,3,6.8,6.8S24.3,177.8,20.6,177.8z M20.6,166.2
	c-2.6,0-4.8,2.1-4.8,4.8s2.1,4.8,4.8,4.8c2.6,0,4.8-2.1,4.8-4.8S23.2,166.2,20.6,166.2z"/>
<path class="st0" d="M132.2,183.7c0,8.1,6.6,14.6,14.6,14.6c0.6,0,1.1,0,1.7-0.1c0.5-0.5,0.8-1.1,0.8-1.8c0-0.8-0.4-1.5-1-2
	c-0.5,0.1-1,0.1-1.5,0.1c-6,0-10.8-4.9-10.8-10.8s4.9-10.8,10.8-10.8c0.5,0,1,0,1.5,0.1c0.6-0.5,1-1.2,1-2c0-0.7-0.3-1.4-0.8-1.8
	c-0.6-0.1-1.1-0.1-1.7-0.1C138.7,169.1,132.2,175.7,132.2,183.7z"/>
<path class="st1" d="M146.8,194.6c-6,0-10.8-4.9-10.8-10.8s4.9-10.8,10.8-10.8c6,0,10.8,4.9,10.8,10.8S152.8,194.6,146.8,194.6z
	 M146.8,174.9c-4.9,0-8.8,4-8.8,8.8s4,8.8,8.8,8.8c4.9,0,8.8-4,8.8-8.8S151.7,174.9,146.8,174.9z"/>
<path class="st1" d="M146.8,200.4c-9.2,0-16.6-7.5-16.6-16.6s7.5-16.6,16.6-16.6s16.6,7.5,16.6,16.6S156,200.4,146.8,200.4z
	 M146.8,169.1c-8.1,0-14.6,6.6-14.6,14.6s6.6,14.6,14.6,14.6s14.6-6.6,14.6-14.6S154.9,169.1,146.8,169.1z"/>
<path class="st1" d="M180.7,187.9c-3.7,0-6.8-3-6.8-6.8s3-6.8,6.8-6.8s6.8,3,6.8,6.8S184.4,187.9,180.7,187.9z M180.7,176.3
	c-2.6,0-4.8,2.1-4.8,4.8c0,2.6,2.1,4.8,4.8,4.8c2.6,0,4.8-2.1,4.8-4.8C185.5,178.5,183.3,176.3,180.7,176.3z"/>
<path class="st1" d="M197,81.6c-3.7,0-6.8-3-6.8-6.8c0-3.7,3-6.8,6.8-6.8s6.8,3,6.8,6.8C203.8,78.6,200.8,81.6,197,81.6z M197,70.1
	c-2.6,0-4.8,2.1-4.8,4.8s2.1,4.8,4.8,4.8s4.8-2.1,4.8-4.8S199.7,70.1,197,70.1z"/>
<path class="st1" d="M45.4,127.8c-1.7,0-3.3-1.2-3.7-2.9c-1.4-5.2-2.1-10.7-2.1-16.2c0-34.2,27.7-62,61.8-62c7.1,0,14,1.2,20.7,3.6
	c2,0.7,3.1,2.9,2.4,4.9c-0.3,1-1,1.8-2,2.2c-0.9,0.4-2,0.5-3,0.2c-5.9-2.1-12-3.1-18.1-3.1c-29.8,0-54,24.3-54,54.2
	c0,4.9,0.6,9.6,1.9,14.2c0.6,2.1-0.7,4.2-2.7,4.8C46.1,127.8,45.8,127.8,45.4,127.8z M101.3,48.8c-33,0-59.8,26.9-59.8,60
	c0,5.4,0.7,10.6,2.1,15.7c0.3,1,1.2,1.6,2.3,1.3c1-0.3,1.6-1.3,1.3-2.3c-1.3-4.7-1.9-9.7-1.9-14.7c0-31,25.1-56.2,56-56.2
	c6.4,0,12.7,1.1,18.8,3.2c0.5,0.2,1,0.1,1.4-0.1c0.4-0.2,0.8-0.6,1-1.1c0.3-1-0.2-2.1-1.1-2.4v0C114.9,49.9,108.2,48.8,101.3,48.8z"
	/>
<path class="st1" d="M75.1,131.6h-9c-2,0-3.7-1.7-3.7-3.7V103c0-1.7,1.6-3.6,3.7-3.7h9c2,0,3.7,1.7,3.7,3.7v24.9
	C78.8,129.9,77.1,131.6,75.1,131.6z M66.1,101.3c-0.9,0-1.7,1-1.7,1.7v24.9c0,0.8,0.8,1.7,1.7,1.7h9c0.9,0,1.7-0.8,1.7-1.7V103
	c0-0.8-0.8-1.7-1.7-1.7H66.1z"/>
<path class="st1" d="M92.4,131.6h-9c-2,0-3.7-1.7-3.7-3.7V89c0-1.7,1.6-3.6,3.7-3.7h9c2,0,3.7,1.7,3.7,3.7V128
	C96.1,129.9,94.4,131.6,92.4,131.6z M83.4,87.4c-0.9,0-1.7,1-1.7,1.7V128c0,0.8,0.8,1.7,1.7,1.7h9c0.9,0,1.7-0.8,1.7-1.7V89
	c0-0.8-0.8-1.7-1.7-1.7H83.4z"/>
<path class="st1" d="M110.2,131.6h-9c-2,0-3.7-1.7-3.7-3.6V96.7c0-1.7,1.6-3.6,3.7-3.6h9c2,0,3.7,1.7,3.7,3.6V128
	C113.9,129.9,112.2,131.6,110.2,131.6z M101.2,95.1c-1,0-1.7,1.1-1.7,1.6V128c0,0.8,0.8,1.6,1.7,1.6h9c0.9,0,1.7-0.8,1.7-1.6V96.7
	c0-0.8-0.8-1.6-1.7-1.6H101.2z"/>
<path class="st1" d="M127.5,131.6h-9c-2,0-3.7-1.7-3.7-3.6V82.3c0-1.7,1.6-3.6,3.7-3.6h9c2,0,3.7,1.7,3.7,3.6V128
	C131.2,129.9,129.5,131.6,127.5,131.6z M118.5,80.7c-1,0-1.7,1.1-1.7,1.7V128c0,0.8,0.8,1.6,1.7,1.6h9c0.9,0,1.7-0.8,1.7-1.6V82.3
	c0-0.8-0.8-1.6-1.7-1.6H118.5z"/>
<path class="st0" d="M139.8,77.7c4.3,0,8.1-2.3,10.2-5.7c-0.1-0.6-0.4-1.2-0.9-1.7c-0.6-0.5-1.3-0.8-2-0.8c-1.4,2.6-4.1,4.5-7.3,4.5
	c-4.5,0-8.2-3.7-8.2-8.2c0-2.9,1.5-5.5,3.8-6.9c-0.1-0.7-0.4-1.4-1-1.9c-0.5-0.5-1.1-0.7-1.8-0.7c-2.9,2.2-4.8,5.6-4.8,9.6
	C127.8,72.3,133.2,77.7,139.8,77.7z"/>
<path class="st1" d="M139.8,73.9c-4.5,0-8.2-3.7-8.2-8.2s3.7-8.2,8.2-8.2c4.5,0,8.2,3.7,8.2,8.2S144.4,73.9,139.8,73.9z M139.8,59.5
	c-3.4,0-6.2,2.8-6.2,6.2s2.8,6.2,6.2,6.2c3.4,0,6.2-2.8,6.2-6.2S143.3,59.5,139.8,59.5z"/>
<path class="st1" d="M139.8,79.7c-7.7,0-14-6.3-14-14s6.3-14,14-14c7.7,0,14,6.3,14,14S147.5,79.7,139.8,79.7z M139.8,53.7
	c-6.6,0-12,5.4-12,12s5.4,12,12,12c6.6,0,12-5.4,12-12S146.4,53.7,139.8,53.7z"/>
<path class="st1" d="M101.3,170.7c-13.8,0-26.9-4.5-37.8-12.9c-1.7-1.3-2-3.8-0.7-5.4c1.3-1.7,3.7-2,5.4-0.7
	c9.5,7.4,21,11.3,33.1,11.3c29.8,0,54.1-24.3,54.1-54.2c0-8.6-2-16.8-5.8-24.5c-1-1.9-0.2-4.2,1.7-5.2c0.9-0.5,2-0.6,2.9-0.2
	c1,0.3,1.8,1,2.3,1.9c4.4,8.7,6.7,18.2,6.7,28C163.1,142.9,135.4,170.7,101.3,170.7z M65.9,152.8c-0.6,0-1.1,0.3-1.5,0.7
	c-0.6,0.8-0.5,2,0.3,2.6c10.6,8.2,23.2,12.5,36.6,12.5c33,0,59.8-26.9,59.8-59.9c0-9.5-2.2-18.6-6.4-27.1c-0.2-0.4-0.6-0.8-1.1-0.9
	c-0.5-0.2-1-0.1-1.4,0.1c-0.9,0.5-1.3,1.6-0.8,2.5c4,7.9,6,16.5,6,25.4c0,31-25.1,56.2-56.1,56.2c-12.6,0-24.4-4.1-34.3-11.7
	C66.7,152.9,66.3,152.8,65.9,152.8z"/>
<path class="st1" d="M156.7,21.5c-3.7,0-6.8-3-6.8-6.8c0-3.7,3-6.8,6.8-6.8s6.8,3,6.8,6.8C163.4,18.5,160.4,21.5,156.7,21.5z
	 M156.7,10c-2.6,0-4.8,2.1-4.8,4.8s2.1,4.8,4.8,4.8c2.6,0,4.8-2.1,4.8-4.8S159.3,10,156.7,10z"/>
</svg>
