<?xml version="1.0" encoding="UTF-8"?>
<svg width="21px" height="21px" viewBox="0 0 21 21" version="1.1" xmlns="http://www.w3.org/2000/svg" xmlns:xlink="http://www.w3.org/1999/xlink">
    <!-- Generator: Sketch 46.2 (44496) - http://www.bohemiancoding.com/sketch -->
    <title>Shape</title>
    <desc>Created with Sketch.</desc>
    <defs></defs>
    <g id="Page-1" stroke="none" stroke-width="1" fill="none" fill-rule="evenodd">
        <g id="Ãcones" transform="translate(-316.000000, -1535.000000)" fill-rule="nonzero" fill="#3DC1D0">
            <g id="Information,-Notice,-Info,-Ui,-Tooltip,-Guide" transform="translate(314.000000, 1533.000000)">
                <g id="Group">
                    <path d="M11.4583333,17.7083333 L13.5416667,17.7083333 L13.5416667,11.4583333 L11.4583333,11.4583333 L11.4583333,17.7083333 Z M12.5,2.08333333 C6.74479167,2.08333333 2.08333333,6.74479167 2.08333333,12.5 C2.08333333,18.2552083 6.74479167,22.9166667 12.5,22.9166667 C18.2552083,22.9166667 22.9166667,18.2552083 22.9166667,12.5 C22.9166667,6.74479167 18.2552083,2.08333333 12.5,2.08333333 Z M12.5,20.8333333 C7.90625,20.8333333 4.16666667,17.09375 4.16666667,12.5 C4.16666667,7.90625 7.90625,4.16666667 12.5,4.16666667 C17.09375,4.16666667 20.8333333,7.90625 20.8333333,12.5 C20.8333333,17.09375 17.09375,20.8333333 12.5,20.8333333 Z M11.4583333,9.375 L13.5416667,9.375 L13.5416667,7.29166667 L11.4583333,7.29166667 L11.4583333,9.375 Z" id="Shape"></path>
                </g>
            </g>
        </g>
    </g>
</svg>