<?xml version="1.0" encoding="UTF-8"?>
<svg width="250px" height="242px" viewBox="0 0 250 242" version="1.1" xmlns="http://www.w3.org/2000/svg" xmlns:xlink="http://www.w3.org/1999/xlink">
    <!-- Generator: Sketch 47.1 (45422) - http://www.bohemiancoding.com/sketch -->
    <title>NoContent_Chart</title>
    <desc>Created with Sketch.</desc>
    <defs>
        <polygon id="path-1" points="21.3802306 21.6346154 0.06438352 21.6346154 0.06438352 0.0401627219 21.3802306 0.0401627219 21.3802306 21.6346154"></polygon>
        <polygon id="path-3" points="4.51071358e-16 47.259527 4.51071358e-16 0.196047794 46.7476609 0.196047794 46.7476609 47.259527"></polygon>
    </defs>
    <g id="Nescon-Page" stroke="none" stroke-width="1" fill="none" fill-rule="evenodd">
        <g id="Nescon-Page-Copy" transform="translate(-678.000000, -303.000000)">
            <g id="NoContent_Chart" transform="translate(668.000000, 292.000000)">
                <rect id="Rectangle-3" x="0" y="0" width="270" height="270"></rect>
                <path d="M91.7307692,156.432692 L95.9375,156.432692 L95.9375,132.394231 L91.7307692,132.394231 L91.7307692,156.432692 Z M89.1015625,125.182692 C87.1714358,125.212844 85.7582517,127.115638 85.7211538,128.523331 L85.7211538,159.70263 C85.7213272,161.451583 87.3316152,163.042927 89.1015625,163.043269 L100.369591,163.043269 C102.139539,163.042927 103.749827,161.451583 103.75,159.70263 L103.75,128.523331 C103.749827,126.774207 102.139539,125.182864 100.369591,125.182692 L89.1015625,125.182692 Z M136.201923,156.432692 L140.408654,156.432692 L140.408654,123.379808 L136.201923,123.379808 L136.201923,156.432692 Z M132.971755,117.370192 C131.041628,117.398968 129.628444,119.257678 129.591346,120.632555 L129.591346,159.780907 C129.59152,161.488879 131.201808,163.042935 132.971755,163.043269 L144.239784,163.043269 C146.009731,163.042935 147.620019,161.488879 147.620192,159.780907 L147.620192,120.632555 C147.620019,118.924415 146.009731,117.37036 144.239784,117.370192 L132.971755,117.370192 Z M113.966346,157.033654 L118.173077,157.033654 L118.173077,114.966346 L113.966346,114.966346 L113.966346,157.033654 Z M110.736178,107.754808 C108.806051,107.784068 107.392867,109.674083 107.355769,111.072115 L107.355769,159.725962 C107.355943,161.4627 108.966231,163.042929 110.736178,163.043269 L122.004207,163.043269 C123.774154,163.042929 125.384442,161.4627 125.384615,159.725962 L125.384615,111.072115 C125.384442,109.335207 123.774154,107.754978 122.004207,107.754808 L110.736178,107.754808 Z M158.4375,155.831731 L162.644231,155.831731 L162.644231,105.350962 L158.4375,105.350962 L158.4375,155.831731 Z M154.60637,99.3413462 C152.676244,99.3704091 151.263059,101.247673 151.225962,102.636273 L151.225962,159.748342 C151.226135,161.473363 152.836423,163.042931 154.60637,163.043269 L165.874399,163.043269 C167.644346,163.042931 169.254634,161.473363 169.254808,159.748342 L169.254808,102.636273 C169.254634,100.911083 167.644346,99.3415151 165.874399,99.3413462 L154.60637,99.3413462 Z" id="Page-1" fill="#DDE5EE"></path>
                <g id="Page-1" transform="translate(10.000000, 11.000000)">
                    <path d="M192.307833,14.4230769 C196.282766,14.4230769 199.519231,11.1867671 199.519231,7.21139758 C199.519231,3.23630978 196.282766,0 192.307833,0 C188.332901,0 185.096154,3.23630978 185.096154,7.21139758 C185.096154,11.1867671 188.332901,14.4230769 192.307833,14.4230769" id="Fill-1" fill="#DDE5EE"></path>
                    <path d="M242.788462,75.1201923 C238.813451,75.1201923 235.576923,78.3567206 235.576923,82.3320125 C235.576923,86.3070227 238.813451,89.5432692 242.788462,89.5432692 C246.763472,89.5432692 250,86.3070227 250,82.3320125 C250,78.3567206 246.768543,75.1201923 242.788462,75.1201923" id="Fill-3" fill="#DDE5EE"></path>
                    <path d="M222.355628,207.932692 C218.380696,207.932692 215.144231,211.169221 215.144231,215.144513 C215.144231,219.119241 218.380696,222.355769 222.355628,222.355769 C226.330561,222.355769 229.567308,219.119241 229.567308,215.144513 C229.567308,211.169221 226.335632,207.932692 222.355628,207.932692" id="Fill-5" fill="#DDE5EE"></path>
                    <path d="M29.4471154,202.524179 C29.4471154,198.549247 26.2105871,195.3125 22.2352952,195.3125 C18.2605668,195.3125 15.0240385,198.549247 15.0240385,202.524179 C15.0240385,206.499112 18.2605668,209.735577 22.2352952,209.735577 C26.2105871,209.735577 29.4471154,206.499112 29.4471154,202.524179" id="Fill-7" fill="#DDE5EE"></path>
                    <path d="M239.187555,54.7082534 C237.184242,54.7082534 235.554692,53.0830932 235.554692,51.0840933 C235.554692,49.0853714 237.184242,47.4549302 239.187555,47.4549302 C241.185867,47.4549302 242.810693,49.0803683 242.810693,51.0840933 C242.810693,53.0830932 241.185867,54.7082534 239.187555,54.7082534 M239.187555,40.2644231 C233.220133,40.2644231 228.365385,45.1157223 228.365385,51.0840933 C228.365385,57.0477392 233.220133,61.8990385 239.187555,61.8990385 C245.14942,61.8990385 250,57.0477392 250,51.0840933 C250,45.1157223 245.14942,40.2644231 239.187555,40.2644231" id="Fill-9" fill="#DDE5EE"></path>
                    <g id="Group-13" transform="translate(22.235577, 219.951923)">
                        <mask id="mask-2" fill="white">
                            <use xlink:href="#path-1"></use>
                        </mask>
                        <g id="Clip-12"></g>
                        <path d="M10.7247718,14.4538092 C8.75547407,14.4538092 7.14903542,12.8323225 7.14903542,10.8375 C7.14903542,8.83796228 8.75054467,7.21120562 10.7247718,7.21120562 C12.6940695,7.21120562 14.2955787,8.83796228 14.2955787,10.8375 C14.2955787,12.8370377 12.6940695,14.4538092 10.7247718,14.4538092 M10.7247718,0.0401627219 C4.84399038,0.0401627219 0.06438352,4.88631657 0.06438352,10.8422152 C0.06438352,16.7933987 4.84399038,21.6348373 10.7247718,21.6348373 C16.6006238,21.6348373 21.3802306,16.7933987 21.3802306,10.8422152 C21.3802306,4.88631657 16.6006238,0.0401627219 10.7247718,0.0401627219" id="Fill-11" fill="#DDE5EE" mask="url(#mask-2)"></path>
                    </g>
                    <path d="M29.4469764,22.2563304 C27.4475655,22.2563304 25.8220712,20.6311701 25.8220712,18.6321702 C25.8220712,16.6284453 27.4475655,15.0030071 29.4469764,15.0030071 C31.4466653,15.0030071 33.0721596,16.6284453 33.0721596,18.6321702 C33.0721596,20.6311701 31.4466653,22.2563304 29.4469764,22.2563304 M29.4469764,7.8125 C23.4823823,7.8125 18.6298077,12.6637992 18.6298077,18.6321702 C18.6298077,24.5958162 23.4823823,29.4471154 29.4469764,29.4471154 C35.4118484,29.4471154 40.2644231,24.5958162 40.2644231,18.6321702 C40.2644231,12.6637992 35.4118484,7.8125 29.4469764,7.8125" id="Fill-14" fill="#DDE5EE"></path>
                    <path d="M148.658444,52.8924224 C140.43763,49.9753278 131.862803,48.4973072 123.173117,48.4973072 C81.2797328,48.4973072 47.195442,82.6831748 47.195442,124.704527 C47.195442,131.527123 48.0807519,138.230098 49.8225179,144.625674 C50.2578207,146.228323 51.7077202,147.279045 53.2821901,147.279045 C53.5931999,147.279045 53.9136427,147.235925 54.2296464,147.154416 C56.1387085,146.63142 57.2681652,144.654327 56.7465787,142.735376 C55.1721088,136.953765 54.3730827,130.888956 54.3730827,124.704527 C54.3730827,86.6512692 85.2368543,55.6943466 123.173117,55.6943466 C131.04935,55.6943466 138.815441,57.0329943 146.266082,59.6769068 C148.151284,60.343727 150.184917,59.3650565 150.845223,57.4842176 C151.505807,55.6128371 150.529497,53.5545133 148.658444,52.8924224 M123.173117,200.853883 C165.076211,200.853883 199.165219,166.691939 199.165219,124.704527 C199.165219,112.608571 196.408856,101.021424 190.973259,90.2738523 C190.083232,88.5079056 187.920313,87.7835003 186.149693,88.6903979 C184.379073,89.5925663 183.671048,91.7563239 184.570507,93.5267216 C189.489789,103.257232 191.987578,113.740802 191.987578,124.699519 C191.987578,162.719116 161.118812,193.651836 123.173117,193.651836 C107.750803,193.651836 93.1799508,188.676417 81.0355859,179.267494 C79.46611,178.053475 77.2121904,178.350859 76.0014439,179.915119 C74.7909748,181.489115 75.0781248,183.748848 76.6476008,184.967596 C90.0601422,195.360197 106.147479,200.853883 123.173117,200.853883 M151.74496,226.897423 C142.32311,229.479021 132.71926,230.784008 123.197254,230.784008 C64.8569714,230.784008 17.3937094,183.19692 17.3937094,124.704527 C17.3937094,120.563677 17.6328623,116.422827 18.1117231,112.392696 C18.3461596,110.415882 16.9392633,108.631018 14.9727712,108.395948 C12.9771479,108.127217 11.2162386,109.571298 10.9865186,111.543383 C10.4793589,115.856711 10.2163462,120.285487 10.2163462,124.704527 C10.2163462,187.170022 60.9001274,237.980769 123.197254,237.980769 C133.360423,237.980769 143.600719,236.589544 153.630162,233.844927 C155.539501,233.32193 156.673675,231.345116 156.147094,229.425887 C155.630502,227.506936 153.658738,226.379434 151.74496,226.897423 M123.197254,11.4182692 C91.8881919,11.4182692 61.6941596,24.6225317 40.362104,47.6479948 C39.012915,49.1018129 39.0942049,51.3807409 40.5488208,52.7341326 C41.9989978,54.0822387 44.2667893,54.0054584 45.6209721,52.5469111 C65.598845,30.9844464 93.8738274,18.6200379 123.197254,18.6200379 C181.531988,18.6200379 228.99525,66.2068479 228.99525,124.704527 C228.99525,151.43436 219.047097,176.954905 200.978564,196.55975 C199.634092,198.018298 199.720098,200.292218 201.179708,201.64561 C201.86859,202.288506 202.739751,202.600078 203.61535,202.600078 C204.581672,202.600078 205.543556,202.211725 206.251859,201.443923 C225.550005,180.510166 236.177885,153.252607 236.177885,124.709256 C236.173168,62.2390317 185.489387,11.4182692 123.197254,11.4182692" id="Fill-16" fill="#DDE5EE"></path>
                    <g id="Group-20" transform="translate(0.000000, 55.288462)">
                        <mask id="mask-4" fill="white">
                            <use xlink:href="#path-3"></use>
                        </mask>
                        <g id="Clip-19"></g>
                        <path d="M23.36924,40.0345235 C14.4424649,40.0345235 7.1757304,32.7179193 7.1757304,23.7254136 C7.1757304,14.7323494 14.4424649,7.42105133 23.36924,7.42105133 C32.3051683,7.42105133 39.5721801,14.7373763 39.5721801,23.7254136 C39.5721801,32.7131717 32.3051683,40.0345235 23.36924,40.0345235 M23.36924,0.196047794 C10.4863813,0.196047794 -2.77366864e-05,10.7493955 -2.77366864e-05,23.7254136 C-2.77366864e-05,36.7011524 10.4813887,47.259527 23.36924,47.259527 C36.256814,47.259527 46.7476609,36.7011524 46.7476609,23.7254136 C46.7476609,10.7493955 36.2615292,0.196047794 23.36924,0.196047794" id="Fill-18" fill="#DDE5EE" mask="url(#mask-4)"></path>
                    </g>
                    <path d="M179.988261,230.734224 C173.215303,230.734224 167.703609,225.222289 167.703609,218.449659 C167.703609,211.67675 173.215303,206.164815 179.988261,206.164815 C186.761499,206.164815 192.273193,211.67675 192.273193,218.449659 C192.273193,225.222289 186.761499,230.734224 179.988261,230.734224 M179.988261,198.918269 C169.220599,198.918269 160.456731,207.677033 160.456731,218.449659 C160.456731,229.222566 169.215557,237.980769 179.988261,237.980769 C190.760965,237.980769 199.519231,229.222566 199.519231,218.449659 C199.519231,207.677033 190.755923,198.918269 179.988261,198.918269" id="Fill-21" fill="#DDE5EE"></path>
                    <path d="M63.1030397,170.709987 C59.7674447,170.709987 57.0480951,167.999824 57.0480951,164.658612 C57.0480951,161.317399 59.7630112,158.607236 63.1030397,158.607236 C66.4389118,158.607236 69.153828,161.317399 69.153828,164.658612 C69.153828,167.999824 66.4389118,170.709987 63.1030397,170.709987 M63.1030397,151.442308 C55.815327,151.442308 49.8798077,157.369247 49.8798077,164.6636 C49.8798077,171.957399 55.8106165,177.884615 63.1030397,177.884615 C70.3915837,177.884615 76.3221154,171.957399 76.3221154,164.6636 C76.3221154,157.369247 70.3915837,151.442308 63.1030397,151.442308" id="Fill-23" fill="#DDE5EE"></path>
                    <path d="M171.278756,79.9527141 C166.286473,79.9527141 162.227762,75.897577 162.227762,70.9086036 C162.227762,65.9196302 166.286473,61.8644931 171.278756,61.8644931 C176.261604,61.8644931 180.320315,65.9196302 180.320315,70.9086036 C180.320315,75.897577 176.261604,79.9527141 171.278756,79.9527141 M171.278756,54.6875 C162.33322,54.6875 155.048077,61.9649832 155.048077,70.9133227 C155.048077,79.8616623 162.328224,87.1394231 171.278756,87.1394231 C180.219853,87.1394231 187.5,79.8616623 187.5,70.9133227 C187.5,61.9649832 180.219853,54.6875 171.278756,54.6875" id="Fill-25" fill="#DDE5EE"></path>
                </g>
            </g>
        </g>
    </g>
</svg>