<?xml version="1.0" encoding="UTF-8"?>
<svg width="12px" height="12px" viewBox="0 0 12 12" version="1.1" xmlns="http://www.w3.org/2000/svg" xmlns:xlink="http://www.w3.org/1999/xlink">
    <!-- Generator: sketchtool 42 (36781) - http://www.bohemiancoding.com/sketch -->
    <title>EAF8FD98-FD97-40BB-845C-6B1CECCB0833</title>
    <desc>Created with sketchtool.</desc>
    <defs></defs>
    <g id="Page-1" stroke="none" stroke-width="1" fill="none" fill-rule="evenodd">
        <g id="Menu-logado" transform="translate(-899.000000, -20.000000)" fill="#FFFFFF">
            <g id="Group-14">
                <g id="Group-10" transform="translate(441.000000, 12.000000)">
                    <g id="Group-9" transform="translate(450.000000, 0.000000)">
                        <g id="person-outline" transform="translate(8.000000, 8.000000)">
                            <path d="M6,1.425 C6.9,1.425 7.575,2.1 7.575,3 C7.575,3.9 6.9,4.575 6,4.575 C5.1,4.575 4.425,3.9 4.425,3 C4.425,2.1 5.1,1.425 6,1.425 L6,1.425 Z M6,8.175 C8.25,8.175 10.575,9.3 10.575,9.75 L10.575,10.575 L1.425,10.575 L1.425,9.75 C1.425,9.3 3.75,8.175 6,8.175 L6,8.175 Z M6,0 C4.35,0 3,1.35 3,3 C3,4.65 4.35,6 6,6 C7.65,6 9,4.65 9,3 C9,1.35 7.65,0 6,0 L6,0 L6,0 Z M6,6.75 C3.975,6.75 0,7.725 0,9.75 L0,12 L12,12 L12,9.75 C12,7.725 8.025,6.75 6,6.75 L6,6.75 L6,6.75 Z" id="Shape"></path>
                        </g>
                    </g>
                </g>
            </g>
        </g>
    </g>
</svg>