<svg xmlns="http://www.w3.org/2000/svg" xmlns:xlink="http://www.w3.org/1999/xlink" width="100" height="37" viewBox="0 0 100 37">
    <defs>
        <path id="a" d="M21.27 21.335V.086H.11v21.249z"/>
        <path id="c" d="M.07 5.396h3.888V.078H.07z"/>
        <path id="e" d="M.035 5.396h5.07V.078H.035z"/>
        <path id="g" d="M.037 5.396h3.859V.078H.036z"/>
        <path id="i" d="M.248 5.396h5.07V.078H.248z"/>
        <path id="k" d="M.233 5.396h3.874V.078H.233z"/>
    </defs>
    <g fill="none" fill-rule="evenodd">
        <path d="M0-1h100v38.776H0z"/>
        <g transform="translate(78.416 .272)">
            <mask id="b" fill="#fff">
                <use xlink:href="#a"/>
            </mask>
            <path fill="#61788E" fill-rule="nonzero" d="M12.064.086L11.78.09C5.536.21.529 4.489.135 10.042c-.196 2.763.759 5.426 2.69 7.499 2.246 2.41 5.613 3.794 9.24 3.794 2.931 0 5.714-.876 7.933-2.481.09-.065.179-.131.267-.199a.193.193 0 0 0-.036-.325l-.278-.134-1.992-.958-.17-.082a.19.19 0 0 0-.191.017c-.15.105-.299.203-.447.293-1.467.893-2.886 1.09-4.515 1.09-.39 0-.787-.022-1.179-.067-4.06-.458-6.989-3.14-7.46-6.833-.29-2.272.378-4.463 1.88-6.168 1.155-1.311 3.58-2.35 6.396-2.35 2.032 0 4.02.42 5.92 1.68.167.111.333.228.498.352a.19.19 0 0 0 .208.014l.213-.123 1.903-1.093.158-.091a.193.193 0 0 0 .038-.306 12.14 12.14 0 0 0-.415-.375C18.485 1.21 15.36.086 12.066.086h-.002z" mask="url(#b)"/>
        </g>
        <path fill="#61788E" fill-rule="nonzero" d="M12.387 5.188a.404.404 0 0 1 .698-.005l7.218 13.832.011.02.009.021c.04.097.09.19.142.278l.014.026a2.277 2.277 0 0 0 1.945 1.09h2.37c.12 0 .2-.13.143-.237L15.21 1.478a.161.161 0 0 0-.143-.087h-4.668a.162.162 0 0 0-.144.087L.53 20.213a.162.162 0 0 0 .143.236h3.6c.07 0 .136-.04.169-.102l7.946-15.159zM36.9 16.651a.404.404 0 0 1-.697.006l-7.22-13.831-.01-.02-.008-.022a2.245 2.245 0 0 0-.143-.278l-.013-.026a2.277 2.277 0 0 0-1.946-1.089h-2.37c-.12 0-.199.129-.143.236l9.726 18.735a.163.163 0 0 0 .144.087h4.668c.06 0 .116-.034.144-.087l9.726-18.735a.162.162 0 0 0-.143-.236h-3.6a.19.19 0 0 0-.169.103L36.901 16.65z"/>
        <path fill="#3DC1D0" fill-rule="nonzero" d="M74.126 1.39H54.643c-.1 0-.182.073-.182.162v2.863c0 .09.082.162.182.162h19.483c.1 0 .182-.073.182-.162V1.553c0-.09-.082-.162-.182-.162M65.695 8.99H54.643c-.1 0-.182.072-.182.161v2.863c0 .09.082.162.182.162h11.052c.1 0 .182-.073.182-.162V9.151c0-.089-.082-.161-.182-.161M70.754 17.014H54.643c-.1 0-.182.073-.182.162v2.863c0 .089.082.161.182.161h16.11c.1 0 .183-.072.183-.161v-2.863c0-.09-.082-.162-.182-.162"/>
        <g transform="translate(.847 30.624)">
            <mask id="d" fill="#fff">
                <use xlink:href="#c"/>
            </mask>
            <path fill="#61788E" fill-rule="nonzero" d="M2.755 4.787c.297 0 .538-.24.538-.538V1.225a.538.538 0 0 0-.538-.538H.87a.13.13 0 0 0-.135.135v3.83c0 .072.057.135.135.135h1.884zM.07 4.985V.49a.41.41 0 0 1 .41-.41h2.274c.665 0 1.203.538 1.203 1.203v2.91c0 .659-.538 1.204-1.203 1.204H.48a.411.411 0 0 1-.41-.41z" mask="url(#d)"/>
        </g>
        <g transform="translate(9.616 30.624)">
            <mask id="f" fill="#fff">
                <use xlink:href="#e"/>
            </mask>
            <path fill="#61788E" fill-rule="nonzero" d="M3.71 3.328L2.79.688h-.348a.137.137 0 0 0-.128.091L1.43 3.33h2.28zm1.395 2.068h-.581a.131.131 0 0 1-.127-.092l-.475-1.366H1.217L.743 5.304a.14.14 0 0 1-.128.092h-.58L1.763.475a.596.596 0 0 1 .559-.397h.842c.036 0 .071.022.085.05l1.856 5.268z" mask="url(#f)"/>
        </g>
        <g transform="translate(18.722 30.624)">
            <mask id="h" fill="#fff">
                <use xlink:href="#g"/>
            </mask>
            <path fill="#61788E" fill-rule="nonzero" d="M3.896.078v.517c0 .05-.043.092-.092.092H2.288v4.617a.09.09 0 0 1-.091.092h-.574V.687H.037V.17c0-.05.042-.092.092-.092h3.767z" mask="url(#h)"/>
        </g>
        <g transform="translate(26.479 30.624)">
            <mask id="j" fill="#fff">
                <use xlink:href="#i"/>
            </mask>
            <path fill="#61788E" fill-rule="nonzero" d="M3.922 3.328l-.92-2.64h-.347a.137.137 0 0 0-.128.091l-.885 2.55h2.28zm1.396 2.068h-.581a.131.131 0 0 1-.128-.092l-.474-1.366H1.43L.956 5.304a.14.14 0 0 1-.128.092h-.58L1.975.475a.596.596 0 0 1 .56-.397h.842c.035 0 .071.022.085.05l1.856 5.268z" mask="url(#j)"/>
        </g>
        <g transform="translate(43.341 30.624)">
            <mask id="l" fill="#fff">
                <use xlink:href="#k"/>
            </mask>
            <path fill="#61788E" fill-rule="nonzero" d="M2.946 4.787c.297 0 .523-.24.523-.538v-.645a.191.191 0 0 0-.127-.17l-2.72-.906a.607.607 0 0 1-.389-.538v-.843C.233.482.772.078 1.437.078h2.521v.517a.09.09 0 0 1-.092.092H1.437c-.297 0-.545.191-.545.489v.687c0 .078.056.155.127.177l2.72.9c.212.07.368.318.368.544v.758c0 .665-.503 1.154-1.161 1.154H.233V4.88c0-.057.043-.092.092-.092h2.62z" mask="url(#l)"/>
        </g>
        <path fill="#61788E" fill-rule="nonzero" d="M52.54 31.906c0-.665.54-1.203 1.205-1.203h2.336v.517c0 .05-.042.091-.091.091h-2.245a.538.538 0 0 0-.538.539v3.023c0 .298.24.539.538.539h2.245c.049 0 .091.042.091.091v.517h-2.336a1.207 1.207 0 0 1-1.204-1.203v-2.91zM61.337 35.928v-5.225h.574c.05 0 .092.042.092.092v5.225h-.574a.094.094 0 0 1-.092-.092M67.966 31.85v1.345a.45.45 0 0 1 .347-.141h2.33v.517c0 .05-.043.091-.092.091h-2.585v1.211c0 .298.24.539.538.539h2.294c.05 0 .093.042.093.091v.517h-2.387a1.203 1.203 0 0 1-1.204-1.203v-2.91c0-.666.539-1.204 1.204-1.204h2.387v.517c0 .05-.043.091-.093.091h-2.294a.538.538 0 0 0-.538.539M79.467 35.058c-.07-.553-.07-1-.106-1.502v-2.761c0-.05.042-.092.092-.092h.573v5.317h-.616a.175.175 0 0 1-.134-.084l-2.422-4.511a.24.24 0 0 0-.191-.113h-.12v4.616c0 .05-.043.092-.092.092h-.574v-5.225c0-.05.042-.092.092-.092h.807c.227 0 .496.162.602.36l1.445 2.727.644 1.268zM85.219 31.906c0-.665.538-1.203 1.203-1.203h2.337v.517c0 .05-.042.091-.092.091h-2.245a.538.538 0 0 0-.538.539v3.023c0 .298.241.539.538.539h2.245c.05 0 .092.042.092.091v.517h-2.337a1.207 1.207 0 0 1-1.203-1.203v-2.91zM94.532 31.85v1.345a.45.45 0 0 1 .346-.141h2.33v.517c0 .05-.042.091-.092.091h-2.584v1.211c0 .298.24.539.538.539h2.294c.05 0 .092.042.092.091v.517H95.07a1.203 1.203 0 0 1-1.204-1.203v-2.91c0-.666.538-1.204 1.204-1.204h2.386v.517c0 .05-.042.091-.092.091H95.07a.538.538 0 0 0-.538.539"/>
    </g>
</svg>
