<svg xmlns="http://www.w3.org/2000/svg" width="40" height="57" viewBox="0 0 40 57">
    <path fill="#FFF" fill-rule="nonzero" d="M19.293 36.403L11.54 56.5l-3.324-7.429-7.465 3.308 7.661-19.863a19.224 19.224 0 0 0 10.878 3.887h.002zm12.418-3.887l7.661 19.863-7.465-3.308-3.324 7.43-7.752-20.098a19.214 19.214 0 0 0 10.878-3.887h.002zm-11.648 1.986c-9.574 0-17.333-7.723-17.333-17.251C2.73 7.723 10.49 0 20.063 0c9.574 0 17.333 7.723 17.333 17.25 0 9.529-7.76 17.252-17.333 17.252zm0-5.75c6.382 0 11.555-5.149 11.555-11.501 0-6.352-5.173-11.5-11.555-11.5-6.383 0-11.556 5.148-11.556 11.5s5.173 11.5 11.556 11.5zm0-1.917c5.317 0 9.63-4.292 9.63-9.584s-4.313-9.584-9.63-9.584c-5.318 0-9.63 4.292-9.63 9.584s4.312 9.584 9.63 9.584z"/>
</svg>
