<svg xmlns="http://www.w3.org/2000/svg" width="42" height="42" viewBox="0 0 42 42">
    <g fill="none" fill-rule="evenodd" transform="translate(1 1)">
        <circle cx="20" cy="20" r="20" stroke="#DFE4E9" stroke-width="2"/>
        <g fill="#A7B4C3">
            <path d="M15.143 13.571h10.286V11H15.143zM16.429 27.714h7.714v-6.428h-7.714v6.428zm-3.858-9a1.285 1.285 0 1 1 0-2.57 1.285 1.285 0 0 1 0 2.57zm16.715-3.857h-18A1.29 1.29 0 0 0 10 16.143v6.428a1.29 1.29 0 0 0 1.286 1.286h3.857V29h10.286v-5.143h3.857a1.29 1.29 0 0 0 1.285-1.286v-6.428a1.29 1.29 0 0 0-1.285-1.286z"/>
        </g>
    </g>
</svg>
