<svg xmlns="http://www.w3.org/2000/svg" width="42" height="42" viewBox="0 0 42 42">
    <g fill="none" fill-rule="evenodd" transform="translate(1 1)">
        <circle cx="20" cy="20" r="20" stroke="#DFE4E9" stroke-width="2"/>
        <path fill="#A7B4C3" d="M20.065 24.161h.774v-5.42h-.774v5.42zm.774 0h6.194a3.873 3.873 0 0 0 1.457-7.458 4.26 4.26 0 0 0-6.03-2.952 5.42 5.42 0 0 0-10.128 2.988A3.876 3.876 0 0 0 10 20.29a3.868 3.868 0 0 0 3.87 3.871h6.195v3.29l-2.517-2.516-.58.581L20.452 29l3.483-3.484-.58-.58-2.516 2.516v-3.29z"/>
    </g>
</svg>
