<?xml version="1.0" encoding="UTF-8"?>
<svg width="16px" height="16px" viewBox="0 0 16 16" version="1.1" xmlns="http://www.w3.org/2000/svg" xmlns:xlink="http://www.w3.org/1999/xlink">
    <!-- Generator: Sketch 45.2 (43514) - http://www.bohemiancoding.com/sketch -->
    <title>Crédito Copy</title>
    <desc>Created with Sketch.</desc>
    <defs></defs>
    <g id="Page-1" stroke="none" stroke-width="1" fill="none" fill-rule="evenodd">
        <g id="Ícones-Categorias" transform="translate(-1112.000000, -277.000000)" fill-rule="nonzero" fill="#3DC1D0">
            <g id="Crédito-Copy" transform="translate(1112.000000, 277.000000)">
                <g id="database">
                    <path d="M8,0 C3.5815,0 0,1.1195 0,2.5 L0,4.5 C0,5.8805 3.5815,7 8,7 C12.4185,7 16,5.8805 16,4.5 L16,2.5 C16,1.1195 12.4185,0 8,0 Z" id="Shape"></path>
                    <path d="M8,8.5 C3.5815,8.5 0,7.3805 0,6 L0,9 C0,10.3805 3.5815,11.5 8,11.5 C12.4185,11.5 16,10.3805 16,9 L16,6 C16,7.3805 12.4185,8.5 8,8.5 Z" id="Shape"></path>
                    <path d="M8,13 C3.5815,13 0,11.8805 0,10.5 L0,13.5 C0,14.8805 3.5815,16 8,16 C12.4185,16 16,14.8805 16,13.5 L16,10.5 C16,11.8805 12.4185,13 8,13 Z" id="Shape"></path>
                </g>
            </g>
        </g>
    </g>
</svg>