<?xml version="1.0" encoding="UTF-8"?>
<svg width="35px" height="42px" viewBox="0 0 35 42" version="1.1" xmlns="http://www.w3.org/2000/svg" xmlns:xlink="http://www.w3.org/1999/xlink">
    <!-- Generator: Sketch 45.2 (43514) - http://www.bohemiancoding.com/sketch -->
    <title>Produção</title>
    <desc>Created with Sketch.</desc>
    <defs>
        <filter x="-8.1%" y="-6.4%" width="122.6%" height="117.9%" filterUnits="objectBoundingBox" id="filter-1">
            <feOffset dx="1" dy="1" in="SourceAlpha" result="shadowOffsetOuter1"></feOffset>
            <feGaussianBlur stdDeviation="1" in="shadowOffsetOuter1" result="shadowBlurOuter1"></feGaussianBlur>
            <feColorMatrix values="0 0 0 0 0   0 0 0 0 0   0 0 0 0 0  0 0 0 0.2 0" type="matrix" in="shadowBlurOuter1" result="shadowMatrixOuter1"></feColorMatrix>
            <feMerge>
                <feMergeNode in="shadowMatrixOuter1"></feMergeNode>
                <feMergeNode in="SourceGraphic"></feMergeNode>
            </feMerge>
        </filter>
    </defs>
    <g id="Page-1" stroke="none" stroke-width="1" fill="none" fill-rule="evenodd">
        <g id="Ícones-Categorias" transform="translate(-767.000000, -444.000000)">
            <g id="Produção" filter="url(#filter-1)" transform="translate(768.000000, 445.000000)">
                <g id="Pin" fill="#3DC1D0">
                    <polygon id="Fill-1" points="14.32665 0.000140909091 12.88515 0.139640909 11.4408318 0.418640909 10.0472409 0.837140909 8.69874091 1.39514091 7.39533182 2.09264091 6.18492273 2.88455 5.06892273 3.81455 4.04733182 4.83755 3.11733182 5.95355 2.27892273 7.16255 1.58142273 8.41805 1.02342273 9.76795909 0.559831818 11.1629591 0.231513636 12.6044591 0.0469227273 14.0459591 0.000422727273 15.4888682 0.0934227273 16.9303682 0.325922727 18.3718682 0.697922727 19.7668682 1.20942273 21.1167773 1.86042273 22.4187773 2.60442273 23.6291864 3.48933182 24.7916864 14.9297409 38.1865045 26.5575591 24.7916864 27.4410591 23.6291864 28.2315591 22.4187773 28.8839682 21.1167773 29.3954682 19.7668682 29.7674682 18.3718682 29.9999682 16.9303682 30.0929682 15.4888682 30.0464682 14.0459591 29.8604682 12.6044591 29.5349682 11.1629591 29.0699682 9.76795909 28.5119682 8.41805 27.8144682 7.16255 26.9774682 5.95355 26.0460591 4.83755 25.0244682 3.81455 23.9070591 2.88455 22.6980591 2.09264091 21.3960591 1.39514091 20.04615 0.837140909 18.65115 0.418640909 17.20965 0.139640909 15.7667409 0.000140909091"></polygon>
                    <polygon id="Fill-2" points="27.9237165 16.5297731 27.6992723 17.9886604 27.306495 19.3931369 26.7453845 20.7398021 26.0159409 22.0303562 25.1742752 23.2103885 24.218687 24.3326095 23.0964661 25.2847969 21.9181341 26.128163 20.62758 26.8576066 19.2809148 27.4187171 17.8781386 27.8114944 16.417551 28.0359386 14.9586638 28.0920497 13.4997765 28.0359386 12.0408893 27.8114944 10.6381131 27.4187171 9.28974761 26.8576066 7.99919351 26.128163 6.8208615 25.2847969 5.69864054 24.3326095 4.7430524 23.2103885 3.90138668 22.0303562 3.17194305 20.7398021 2.61083257 19.3931369 2.21805524 17.9886604 1.99361105 16.5297731 1.9375 15.0708859 1.99361105 13.6119986 2.21805524 12.1531114 2.61083257 10.7503352 3.17194305 9.40367004 3.90138668 8.1114156 4.79916344 6.8208615 5.75475159 5.69864054 6.87697255 4.7430524 8.05530456 3.90138668 9.34585866 3.17364339 10.6925238 2.61083257 12.0953 2.21805524 13.5558876 1.99361105 15.0147748 1.9375 16.4753624 2.10583314 17.9342497 2.33027734 19.3370259 2.72305467 20.683691 3.28416515 21.9742451 4.01530911 23.1525771 4.85697483 24.2747981 5.80916231 25.2303862 6.93138326 26.0720519 8.1114156 26.8576066 9.40367004 27.4187171 10.7503352 27.8131948 12.1531114 28.0359386 13.6119986 28.09375 15.0708859"></polygon>
                </g>
                <g id="truck" transform="translate(6.000000, 7.000000)" fill-rule="nonzero" fill="#FFFFFF">
                    <path d="M20,8.75 L17.5,3.75 L13.75,3.75 L13.75,1.25 C13.75,0.5625 13.1875,0 12.5,0 L1.25,0 C0.5625,0 0,0.5625 0,1.25 L0,11.25 L1.25,12.5 L2.835,12.5 C2.621875,12.8675 2.5,13.294375 2.5,13.75 C2.5,15.130625 3.619375,16.25 5,16.25 C6.380625,16.25 7.5,15.130625 7.5,13.75 C7.5,13.294375 7.3775,12.8675 7.165,12.5 L14.085625,12.5 C13.8725,12.8675 13.75,13.294375 13.75,13.75 C13.75,15.130625 14.869375,16.25 16.25,16.25 C17.630625,16.25 18.75,15.130625 18.75,13.75 C18.75,13.294375 18.6275,12.8675 18.414375,12.5 L20,12.5 L20,8.75 Z M13.75,8.75 L13.75,5 L16.34125,5 L18.21625,8.75 L13.75,8.75 Z" id="Shape"></path>
                </g>
            </g>
        </g>
    </g>
</svg>